<svg id="svg" version="1.1" xmlns="http://www.w3.org/2000/svg" xmlns:xlink="http://www.w3.org/1999/xlink" width="400" height="400" viewBox="0, 0, 400,400"><g id="svgg"><path id="path0" d="M109.800 120.629 C 73.574 124.092,46.409 148.556,38.096 185.200 C 37.210 189.102,37.093 208.698,37.931 212.800 C 41.177 228.702,45.888 239.057,55.061 250.455 C 81.903 283.809,130.908 289.337,165.548 262.920 C 168.483 260.682,168.985 260.430,169.614 260.883 C 170.008 261.167,171.652 262.408,173.266 263.641 C 210.630 292.171,266.114 281.133,289.818 240.455 C 292.091 236.554,292.292 236.428,294.290 237.635 C 296.193 238.785,304.016 243.604,311.746 248.389 C 315.016 250.413,317.825 251.918,317.989 251.734 C 318.152 251.550,318.500 241.050,318.761 228.400 C 319.022 215.750,319.401 198.650,319.602 190.400 C 320.590 149.983,320.595 148.640,319.759 148.959 C 319.342 149.119,313.181 152.479,306.069 156.425 C 298.957 160.371,292.926 163.600,292.666 163.600 C 292.406 163.600,291.086 161.755,289.731 159.500 C 272.951 131.563,240.928 116.236,209.600 121.147 C 195.234 123.399,181.859 129.228,171.272 137.852 C 170.080 138.824,168.920 139.479,168.663 139.326 C 168.408 139.175,166.701 137.913,164.869 136.522 C 149.533 124.877,128.589 118.833,109.800 120.629 M122.203 135.994 C 133.804 137.216,143.954 140.849,152.738 146.922 C 157.281 150.062,158.214 151.040,157.546 151.961 C 136.582 180.871,136.227 219.860,156.683 246.731 C 158.425 249.019,158.505 248.831,154.500 251.813 C 143.793 259.782,130.298 264.161,116.400 264.175 C 113.210 264.178,109.340 263.944,107.800 263.656 C 97.710 261.766,95.081 260.977,89.000 258.015 C 44.792 236.487,39.550 176.078,79.428 147.714 C 85.789 143.190,95.674 138.600,101.200 137.605 C 112.862 135.505,115.586 135.296,122.203 135.994 M230.200 136.404 C 257.069 140.837,278.232 160.176,283.598 185.200 C 283.857 186.410,284.220 188.030,284.405 188.800 C 290.589 214.595,274.855 245.265,249.000 257.813 C 242.245 261.092,240.257 261.697,229.800 263.656 C 221.941 265.128,209.369 263.886,199.800 260.692 C 193.717 258.661,180.000 250.542,180.000 248.972 C 180.000 248.669,181.240 246.571,182.755 244.310 C 188.818 235.263,193.017 225.244,194.787 215.600 C 195.050 214.170,195.430 212.136,195.632 211.080 C 196.237 207.925,196.077 193.312,195.388 188.697 C 193.570 176.531,189.222 165.297,182.420 155.198 C 179.385 150.691,179.300 151.118,183.894 147.800 C 193.339 140.979,201.959 137.823,216.600 135.827 C 218.628 135.551,227.242 135.916,230.200 136.404 M363.284 143.222 C 362.462 143.549,358.171 146.452,343.600 156.541 C 341.070 158.293,336.803 161.234,334.118 163.077 C 327.444 167.658,326.472 169.093,328.500 171.363 C 330.530 173.634,330.845 173.496,343.000 165.005 C 344.540 163.929,350.300 159.921,355.800 156.098 C 366.585 148.601,367.600 147.736,367.600 146.047 C 367.600 144.110,365.126 142.490,363.284 143.222 M170.440 164.915 C 182.807 184.948,184.230 209.864,174.089 228.800 C 172.397 231.959,169.448 236.800,169.220 236.794 C 168.404 236.771,166.536 234.111,164.309 229.800 C 153.730 209.325,154.778 183.458,166.909 165.621 C 168.904 162.688,169.048 162.659,170.440 164.915 M328.752 200.803 C 326.939 201.862,326.988 205.430,328.829 206.415 C 329.804 206.938,368.208 206.931,369.184 206.408 C 370.847 205.519,371.023 202.082,369.462 200.988 C 368.466 200.291,329.929 200.115,328.752 200.803 M329.670 238.926 C 327.076 241.687,327.896 242.603,339.600 250.010 C 344.550 253.143,351.930 257.817,356.000 260.396 C 366.550 267.083,366.434 267.035,368.178 265.500 C 370.948 263.063,369.877 261.349,362.800 256.890 C 360.050 255.158,353.210 250.797,347.600 247.201 C 331.404 236.817,331.577 236.896,329.670 238.926 " stroke="none" fill="#fafbfc" fill-rule="evenodd"></path><path id="path1" d="M0.000 200.000 L 0.000 400.000 200.000 400.000 L 400.000 400.000 400.000 200.000 L 400.000 0.000 200.000 0.000 L 0.000 0.000 0.000 200.000 M126.593 120.208 C 131.432 120.887,131.634 120.926,136.400 122.069 C 146.654 124.529,157.436 129.744,165.655 136.220 L 168.913 138.787 170.357 137.571 C 187.855 122.837,214.046 116.435,237.400 121.183 C 241.756 122.069,246.329 123.407,250.506 125.017 C 266.693 131.259,281.306 143.765,290.441 159.194 C 292.880 163.314,292.571 163.149,295.082 161.673 C 296.137 161.053,298.260 159.857,299.800 159.014 C 305.015 156.159,317.792 149.109,319.131 148.348 C 321.331 147.096,321.338 147.136,321.043 158.959 C 320.772 169.778,320.367 188.209,319.635 223.000 C 319.161 245.514,318.825 252.710,318.239 252.915 C 317.997 253.000,314.380 250.942,310.200 248.342 C 306.020 245.741,300.398 242.248,297.707 240.579 C 292.046 237.068,292.685 236.986,290.023 241.560 C 285.576 249.202,276.971 258.732,269.405 264.395 C 247.598 280.719,219.060 284.843,193.053 275.429 C 185.845 272.820,176.351 267.423,170.741 262.744 L 168.881 261.194 166.741 262.904 C 154.706 272.522,142.563 277.532,125.323 279.990 C 96.235 284.137,63.879 268.173,47.916 241.798 C 20.063 195.779,44.172 135.853,96.000 122.276 C 99.509 121.357,101.764 120.920,107.600 120.029 C 111.348 119.457,121.955 119.557,126.593 120.208 M109.800 136.865 C 90.144 139.836,76.444 147.805,65.215 162.800 C 52.462 179.830,49.453 205.563,58.024 224.296 C 58.451 225.228,58.800 226.138,58.800 226.317 C 58.800 227.159,64.134 235.854,66.485 238.845 C 78.678 254.360,97.383 263.600,116.600 263.600 C 130.234 263.600,144.933 258.387,156.508 249.447 C 157.165 248.940,157.018 248.604,154.457 244.750 C 147.518 234.308,143.992 225.271,141.618 211.833 C 140.975 208.195,141.098 190.051,141.791 186.200 C 143.889 174.545,149.666 160.895,155.761 153.193 C 157.457 151.049,157.495 151.111,152.337 147.579 C 145.684 143.022,137.286 139.438,130.000 138.045 C 121.038 136.333,115.474 136.008,109.800 136.865 M214.800 136.844 C 203.016 138.715,199.953 139.629,192.332 143.549 C 187.870 145.844,180.800 150.611,180.800 151.325 C 180.800 151.523,181.310 152.341,181.933 153.142 C 184.857 156.903,189.144 164.814,191.568 170.922 C 197.453 185.756,198.651 207.093,194.377 221.000 C 191.172 231.431,186.550 241.051,181.954 246.858 C 180.367 248.862,180.323 248.781,184.736 251.954 C 194.681 259.103,208.699 263.600,221.044 263.600 C 224.320 263.600,225.964 263.422,232.400 262.369 C 252.001 259.164,269.424 245.973,278.323 227.600 C 294.311 194.593,278.593 154.368,244.400 140.783 C 235.961 137.430,222.442 135.631,214.800 136.844 M365.996 142.598 C 367.498 143.375,368.400 144.694,368.400 146.115 C 368.400 148.335,368.902 147.891,357.200 156.021 C 354.230 158.085,348.560 162.041,344.600 164.813 C 332.804 173.071,332.594 173.200,330.996 173.200 C 329.129 173.200,328.155 172.659,327.404 171.208 C 325.875 168.251,326.560 167.363,334.679 161.781 C 341.073 157.385,345.057 154.636,355.634 147.327 C 363.950 141.580,363.991 141.561,365.996 142.598 M167.336 166.348 C 156.301 183.231,154.745 207.465,163.481 226.400 C 165.113 229.937,168.422 235.600,168.857 235.600 C 169.157 235.600,171.600 232.256,171.600 231.846 C 171.600 231.730,172.105 230.772,172.723 229.718 C 173.341 228.663,174.166 226.990,174.556 226.000 C 174.946 225.010,175.509 223.660,175.806 223.000 C 182.326 208.515,181.257 187.727,173.154 171.456 C 169.279 163.675,169.155 163.566,167.336 166.348 M369.587 200.193 C 371.901 201.390,372.080 204.788,369.926 206.601 L 368.739 207.600 348.939 207.600 L 329.138 207.600 327.969 206.431 C 326.098 204.559,326.292 201.712,328.389 200.277 C 329.796 199.314,367.737 199.237,369.587 200.193 M340.014 241.442 C 349.896 247.806,353.235 249.945,359.600 253.990 C 370.125 260.678,370.159 260.707,370.089 263.163 C 370.040 264.885,369.315 265.993,367.831 266.613 C 365.759 267.479,365.729 267.465,355.200 260.785 C 352.670 259.180,348.980 256.844,347.000 255.594 C 345.020 254.344,341.060 251.829,338.200 250.006 C 335.340 248.183,332.139 246.157,331.086 245.503 C 327.502 243.277,326.833 240.090,329.508 237.986 C 331.529 236.397,332.859 236.834,340.014 241.442 " stroke="none" fill="#7c94f4" fill-rule="evenodd"></path><path id="path2" d="M108.705 120.283 C 109.202 120.379,109.922 120.375,110.305 120.275 C 110.687 120.175,110.280 120.096,109.400 120.101 C 108.520 120.105,108.207 120.187,108.705 120.283 M123.300 120.276 C 123.685 120.376,124.315 120.376,124.700 120.276 C 125.085 120.175,124.770 120.093,124.000 120.093 C 123.230 120.093,122.915 120.175,123.300 120.276 M213.300 120.276 C 213.685 120.376,214.315 120.376,214.700 120.276 C 215.085 120.175,214.770 120.093,214.000 120.093 C 213.230 120.093,212.915 120.175,213.300 120.276 M227.700 120.276 C 228.085 120.376,228.715 120.376,229.100 120.276 C 229.485 120.175,229.170 120.093,228.400 120.093 C 227.630 120.093,227.315 120.175,227.700 120.276 M274.800 140.510 C 274.800 140.571,276.195 141.966,277.900 143.610 L 281.000 146.600 278.010 143.500 C 275.233 140.621,274.800 140.217,274.800 140.510 M71.389 154.900 L 68.600 157.800 71.500 155.011 C 74.194 152.420,74.583 152.000,74.289 152.000 C 74.228 152.000,72.923 153.305,71.389 154.900 M320.514 165.800 C 320.517 166.900,320.595 167.303,320.687 166.695 C 320.779 166.086,320.777 165.186,320.682 164.695 C 320.587 164.203,320.511 164.700,320.514 165.800 M320.142 174.600 C 320.141 176.580,320.208 177.440,320.292 176.512 C 320.376 175.584,320.377 173.964,320.295 172.912 C 320.212 171.860,320.143 172.620,320.142 174.600 M196.101 193.400 C 196.105 194.280,196.187 194.593,196.283 194.095 C 196.379 193.598,196.375 192.878,196.275 192.495 C 196.175 192.113,196.096 192.520,196.101 193.400 M157.337 198.200 C 157.339 199.960,157.409 200.630,157.493 199.689 C 157.578 198.749,157.577 197.309,157.491 196.489 C 157.405 195.670,157.336 196.440,157.337 198.200 M196.551 201.200 C 196.551 203.730,196.616 204.765,196.696 203.500 C 196.775 202.235,196.775 200.165,196.696 198.900 C 196.616 197.635,196.551 198.670,196.551 201.200 M180.528 201.200 C 180.528 202.630,180.601 203.215,180.689 202.500 C 180.778 201.785,180.778 200.615,180.689 199.900 C 180.601 199.185,180.528 199.770,180.528 201.200 M319.709 201.600 C 319.709 202.590,319.787 202.995,319.882 202.500 C 319.978 202.005,319.978 201.195,319.882 200.700 C 319.787 200.205,319.709 200.610,319.709 201.600 M284.914 202.600 C 284.917 203.700,284.995 204.103,285.087 203.495 C 285.179 202.886,285.177 201.986,285.082 201.495 C 284.987 201.003,284.911 201.500,284.914 202.600 M319.344 210.000 C 319.344 212.090,319.412 212.945,319.494 211.900 C 319.576 210.855,319.576 209.145,319.494 208.100 C 319.412 207.055,319.344 207.910,319.344 210.000 M318.914 237.000 C 318.917 238.100,318.995 238.503,319.087 237.895 C 319.179 237.286,319.177 236.386,319.082 235.895 C 318.987 235.403,318.911 235.900,318.914 237.000 M328.249 239.815 C 328.112 240.173,328.018 240.856,328.041 241.333 C 328.067 241.881,328.203 241.686,328.410 240.803 C 328.760 239.316,328.665 238.733,328.249 239.815 M71.800 245.600 C 73.550 247.360,75.071 248.800,75.181 248.800 C 75.291 248.800,73.950 247.360,72.200 245.600 C 70.450 243.840,68.929 242.400,68.819 242.400 C 68.709 242.400,70.050 243.840,71.800 245.600 M318.542 245.800 C 318.541 247.780,318.608 248.640,318.692 247.712 C 318.776 246.784,318.777 245.164,318.695 244.112 C 318.612 243.060,318.543 243.820,318.542 245.800 M157.049 248.184 C 157.181 248.529,157.044 249.123,156.745 249.505 C 156.252 250.134,156.267 250.148,156.900 249.651 C 157.673 249.044,157.816 248.181,157.205 247.803 C 156.977 247.662,156.911 247.824,157.049 248.184 M277.789 256.500 L 275.000 259.400 277.900 256.611 C 280.594 254.020,280.983 253.600,280.689 253.600 C 280.628 253.600,279.323 254.905,277.789 256.500 M108.500 279.876 C 108.885 279.976,109.515 279.976,109.900 279.876 C 110.285 279.775,109.970 279.693,109.200 279.693 C 108.430 279.693,108.115 279.775,108.500 279.876 M122.900 279.876 C 123.285 279.976,123.915 279.976,124.300 279.876 C 124.685 279.775,124.370 279.693,123.600 279.693 C 122.830 279.693,122.515 279.775,122.900 279.876 M213.105 279.883 C 213.602 279.979,214.322 279.975,214.705 279.875 C 215.087 279.775,214.680 279.696,213.800 279.701 C 212.920 279.705,212.607 279.787,213.105 279.883 M227.700 279.876 C 228.085 279.976,228.715 279.976,229.100 279.876 C 229.485 279.775,229.170 279.693,228.400 279.693 C 227.630 279.693,227.315 279.775,227.700 279.876 " stroke="none" fill="#afbbfb" fill-rule="evenodd"></path><path id="path3" d="M109.000 120.363 C 107.900 120.493,111.320 120.600,116.600 120.600 C 121.880 120.600,125.300 120.481,124.200 120.335 C 121.782 120.015,111.781 120.033,109.000 120.363 M213.600 120.360 C 212.610 120.492,216.030 120.600,221.200 120.600 C 226.370 120.600,229.700 120.481,228.600 120.335 C 226.163 120.012,216.084 120.029,213.600 120.360 M103.000 121.200 C 101.930 121.472,101.908 121.505,102.800 121.505 C 103.350 121.505,104.340 121.368,105.000 121.200 C 106.070 120.928,106.092 120.895,105.200 120.895 C 104.650 120.895,103.660 121.032,103.000 121.200 M128.200 121.200 C 128.860 121.368,129.850 121.509,130.400 121.513 L 131.400 121.520 130.400 121.200 C 129.850 121.024,128.860 120.883,128.200 120.887 L 127.000 120.895 128.200 121.200 M207.600 121.200 L 206.600 121.520 207.600 121.513 C 208.150 121.509,209.140 121.368,209.800 121.200 L 211.000 120.895 209.800 120.887 C 209.140 120.883,208.150 121.024,207.600 121.200 M233.000 121.200 C 233.660 121.368,234.650 121.505,235.200 121.505 C 236.092 121.505,236.070 121.472,235.000 121.200 C 234.340 121.032,233.350 120.895,232.800 120.895 C 231.908 120.895,231.930 120.928,233.000 121.200 M98.800 122.000 C 98.005 122.514,99.004 122.514,100.200 122.000 L 101.000 121.656 100.200 121.634 C 99.760 121.622,99.130 121.787,98.800 122.000 M133.000 122.000 C 134.196 122.514,135.195 122.514,134.400 122.000 C 134.070 121.787,133.440 121.622,133.000 121.634 L 132.200 121.656 133.000 122.000 M203.400 122.000 C 202.896 122.217,202.822 122.344,203.200 122.344 C 203.530 122.344,204.160 122.189,204.600 122.000 C 205.104 121.783,205.178 121.656,204.800 121.656 C 204.470 121.656,203.840 121.811,203.400 122.000 M237.800 122.000 C 238.240 122.189,238.870 122.344,239.200 122.344 C 239.578 122.344,239.504 122.217,239.000 122.000 C 238.560 121.811,237.930 121.656,237.600 121.656 C 237.222 121.656,237.296 121.783,237.800 122.000 M95.800 122.800 C 95.296 123.017,95.222 123.144,95.600 123.144 C 95.930 123.144,96.560 122.989,97.000 122.800 C 97.504 122.583,97.578 122.456,97.200 122.456 C 96.870 122.456,96.240 122.611,95.800 122.800 M136.200 122.800 C 136.640 122.989,137.270 123.144,137.600 123.144 C 137.978 123.144,137.904 123.017,137.400 122.800 C 136.960 122.611,136.330 122.456,136.000 122.456 C 135.622 122.456,135.696 122.583,136.200 122.800 M200.400 122.800 C 199.867 123.145,199.867 123.188,200.400 123.188 C 200.730 123.188,201.270 123.013,201.600 122.800 C 202.133 122.455,202.133 122.412,201.600 122.412 C 201.270 122.412,200.730 122.587,200.400 122.800 M241.000 122.800 C 241.440 122.989,242.070 123.144,242.400 123.144 C 242.778 123.144,242.704 123.017,242.200 122.800 C 241.760 122.611,241.130 122.456,240.800 122.456 C 240.422 122.456,240.496 122.583,241.000 122.800 M92.800 123.618 C 92.362 123.915,92.524 123.952,93.400 123.756 C 94.871 123.427,95.190 123.198,94.167 123.206 C 93.745 123.209,93.130 123.395,92.800 123.618 M197.400 123.600 C 196.896 123.817,196.822 123.944,197.200 123.944 C 197.530 123.944,198.160 123.789,198.600 123.600 C 199.104 123.383,199.178 123.256,198.800 123.256 C 198.470 123.256,197.840 123.411,197.400 123.600 M243.800 123.600 C 244.996 124.114,245.995 124.114,245.200 123.600 C 244.870 123.387,244.240 123.222,243.800 123.234 L 243.000 123.256 243.800 123.600 M252.138 126.447 C 252.984 126.893,253.768 127.165,253.881 127.052 C 254.076 126.857,251.380 125.580,250.851 125.618 C 250.713 125.627,251.292 126.000,252.138 126.447 M149.338 127.247 C 150.184 127.693,150.968 127.965,151.081 127.852 C 151.276 127.657,148.580 126.380,148.051 126.418 C 147.913 126.427,148.492 126.800,149.338 127.247 M79.511 128.960 C 77.187 130.341,77.182 130.606,79.500 129.441 C 80.655 128.861,81.600 128.300,81.600 128.193 C 81.600 127.849,81.029 128.058,79.511 128.960 M153.200 128.979 C 153.200 129.089,153.740 129.459,154.400 129.800 C 155.060 130.141,155.600 130.331,155.600 130.221 C 155.600 130.111,155.060 129.741,154.400 129.400 C 153.740 129.059,153.200 128.869,153.200 128.979 M181.600 130.433 L 180.600 131.248 181.900 130.614 C 182.615 130.265,183.200 129.894,183.200 129.790 C 183.200 129.392,182.563 129.648,181.600 130.433 M259.200 129.790 C 259.200 129.894,259.785 130.265,260.500 130.614 L 261.800 131.248 260.800 130.433 C 259.837 129.648,259.200 129.392,259.200 129.790 M75.300 131.426 C 74.365 131.987,73.600 132.540,73.600 132.655 C 73.600 132.871,76.299 131.338,76.980 130.736 C 77.667 130.128,77.027 130.391,75.300 131.426 M156.200 130.690 C 156.420 130.900,157.320 131.476,158.200 131.970 C 159.080 132.465,159.440 132.570,159.000 132.204 C 158.106 131.461,155.572 130.091,156.200 130.690 M262.000 131.334 C 262.000 131.423,263.476 132.456,265.281 133.628 C 269.853 136.599,274.709 140.732,279.379 145.628 C 281.568 147.923,282.619 148.900,281.715 147.800 C 276.886 141.922,262.000 129.489,262.000 131.334 M176.174 133.723 C 172.670 136.145,169.637 138.550,169.617 138.922 C 169.608 139.099,170.601 138.429,171.824 137.432 C 173.048 136.435,175.208 134.870,176.624 133.954 C 178.041 133.038,179.200 132.224,179.200 132.144 C 179.200 131.767,178.404 132.182,176.174 133.723 M68.000 136.363 C 66.570 137.439,63.678 140.002,61.573 142.059 C 59.468 144.117,58.838 144.792,60.173 143.559 C 62.911 141.031,68.050 136.645,69.823 135.322 C 70.470 134.839,70.910 134.436,70.800 134.426 C 70.690 134.416,69.430 135.288,68.000 136.363 M163.600 135.349 C 163.600 135.462,164.725 136.388,166.100 137.407 C 167.475 138.427,167.970 138.694,167.200 138.001 C 165.497 136.469,163.600 135.071,163.600 135.349 M114.912 135.895 C 115.964 135.977,117.584 135.976,118.512 135.892 C 119.440 135.808,118.580 135.741,116.600 135.742 C 114.620 135.743,113.860 135.812,114.912 135.895 M219.300 135.894 C 220.345 135.976,222.055 135.976,223.100 135.894 C 224.145 135.812,223.290 135.744,221.200 135.744 C 219.110 135.744,218.255 135.812,219.300 135.894 M107.800 136.400 C 106.034 136.849,108.045 136.869,110.200 136.423 L 111.800 136.092 110.400 136.093 C 109.630 136.094,108.460 136.232,107.800 136.400 M123.000 136.400 C 123.660 136.568,124.830 136.706,125.600 136.707 L 127.000 136.708 125.400 136.377 C 123.245 135.931,121.234 135.951,123.000 136.400 M212.600 136.400 L 211.400 136.705 212.600 136.705 C 213.260 136.705,214.340 136.568,215.000 136.400 L 216.200 136.095 215.000 136.095 C 214.340 136.095,213.260 136.232,212.600 136.400 M227.800 136.423 C 229.826 136.842,231.463 136.823,229.800 136.400 C 229.140 136.232,228.060 136.094,227.400 136.093 C 226.391 136.092,226.455 136.145,227.800 136.423 M103.400 137.200 L 102.600 137.544 103.400 137.544 C 103.840 137.544,104.560 137.389,105.000 137.200 L 105.800 136.856 105.000 136.856 C 104.560 136.856,103.840 137.011,103.400 137.200 M128.400 137.200 C 128.950 137.376,129.760 137.520,130.200 137.520 C 130.833 137.520,130.792 137.454,130.000 137.200 C 129.450 137.024,128.640 136.880,128.200 136.880 C 127.567 136.880,127.608 136.946,128.400 137.200 M208.000 137.200 C 207.208 137.454,207.167 137.520,207.800 137.520 C 208.240 137.520,209.050 137.376,209.600 137.200 C 210.392 136.946,210.433 136.880,209.800 136.880 C 209.360 136.880,208.550 137.024,208.000 137.200 M233.000 137.200 C 233.440 137.389,234.250 137.538,234.800 137.532 L 235.800 137.520 234.800 137.200 C 234.250 137.024,233.440 136.874,233.000 136.868 L 232.200 136.856 233.000 137.200 M99.400 138.000 L 98.600 138.344 99.400 138.344 C 99.840 138.344,100.560 138.189,101.000 138.000 L 101.800 137.656 101.000 137.656 C 100.560 137.656,99.840 137.811,99.400 138.000 M132.600 138.000 C 133.040 138.189,133.670 138.344,134.000 138.344 C 134.378 138.344,134.304 138.217,133.800 138.000 C 133.360 137.811,132.730 137.656,132.400 137.656 C 132.022 137.656,132.096 137.783,132.600 138.000 M204.200 138.000 C 203.696 138.217,203.622 138.344,204.000 138.344 C 204.330 138.344,204.960 138.189,205.400 138.000 C 205.904 137.783,205.978 137.656,205.600 137.656 C 205.270 137.656,204.640 137.811,204.200 138.000 M237.000 138.000 C 237.440 138.189,238.070 138.344,238.400 138.344 C 238.778 138.344,238.704 138.217,238.200 138.000 C 237.760 137.811,237.130 137.656,236.800 137.656 C 236.422 137.656,236.496 137.783,237.000 138.000 M240.000 138.800 C 240.330 139.013,240.870 139.188,241.200 139.188 C 241.733 139.188,241.733 139.145,241.200 138.800 C 240.870 138.587,240.330 138.412,240.000 138.412 C 239.467 138.412,239.467 138.455,240.000 138.800 M198.200 139.978 C 197.320 140.395,196.780 140.736,197.000 140.738 C 197.546 140.742,200.702 139.264,200.200 139.240 C 199.980 139.230,199.080 139.562,198.200 139.978 M242.400 139.600 C 242.730 139.813,243.270 139.988,243.600 139.988 C 244.133 139.988,244.133 139.945,243.600 139.600 C 243.270 139.387,242.730 139.212,242.400 139.212 C 241.867 139.212,241.867 139.255,242.400 139.600 M244.400 140.195 C 244.400 140.405,247.135 141.611,247.549 141.583 C 247.870 141.562,245.101 140.039,244.700 140.017 C 244.535 140.008,244.400 140.088,244.400 140.195 M192.259 142.645 C 190.311 143.638,188.788 144.522,188.875 144.609 C 188.963 144.696,190.736 143.880,192.817 142.796 C 194.898 141.712,196.420 140.829,196.200 140.833 C 195.980 140.837,194.206 141.653,192.259 142.645 M249.600 142.587 C 249.600 142.697,250.500 143.243,251.600 143.800 C 252.700 144.357,253.600 144.723,253.600 144.613 C 253.600 144.503,252.700 143.957,251.600 143.400 C 250.500 142.843,249.600 142.477,249.600 142.587 M363.277 142.821 C 362.111 143.289,354.087 148.736,353.742 149.294 C 353.601 149.522,355.662 148.214,358.322 146.388 C 363.655 142.726,364.871 142.376,366.603 144.003 C 368.158 145.464,367.939 147.003,365.900 148.930 C 364.321 150.422,364.300 150.468,365.600 149.583 C 367.473 148.307,367.972 147.615,367.987 146.274 C 368.017 143.646,365.613 141.884,363.277 142.821 M83.900 144.629 C 82.405 145.440,82.496 145.778,84.000 145.000 C 84.660 144.659,85.200 144.294,85.200 144.190 C 85.200 143.932,85.157 143.947,83.900 144.629 M186.693 145.814 C 185.872 146.372,185.200 146.915,185.200 147.020 C 185.200 147.125,185.920 146.735,186.800 146.153 C 188.197 145.228,188.670 144.800,188.293 144.800 C 188.234 144.800,187.514 145.256,186.693 145.814 M254.000 144.921 C 254.000 145.012,255.035 145.751,256.300 146.563 C 257.565 147.375,258.108 147.621,257.506 147.110 C 256.318 146.100,254.000 144.653,254.000 144.921 M80.000 147.242 C 76.860 149.535,76.531 150.050,79.522 147.990 C 81.666 146.514,82.806 145.548,82.324 145.618 C 82.256 145.628,81.210 146.359,80.000 147.242 M56.598 146.965 C 56.379 147.276,55.600 148.266,54.866 149.165 C 52.913 151.560,53.537 151.160,55.747 148.600 C 56.791 147.390,57.500 146.400,57.321 146.400 C 57.142 146.400,56.817 146.654,56.598 146.965 M152.600 147.075 C 153.040 147.511,154.390 148.545,155.600 149.371 C 156.810 150.198,157.260 150.408,156.600 149.837 C 154.911 148.379,151.632 146.114,152.600 147.075 M183.000 148.432 C 180.627 150.226,180.308 150.732,182.533 149.172 C 184.214 147.994,185.129 147.175,184.724 147.211 C 184.656 147.217,183.880 147.767,183.000 148.432 M258.944 148.309 C 259.260 148.821,261.600 150.553,261.600 150.275 C 261.600 150.176,260.939 149.591,260.132 148.975 C 259.324 148.359,258.789 148.059,258.944 148.309 M319.189 148.858 C 318.338 149.543,318.322 149.594,319.074 149.227 C 319.554 148.992,320.078 148.800,320.238 148.800 C 320.398 148.800,320.439 153.885,320.330 160.100 C 320.221 166.315,320.260 169.510,320.417 167.200 C 320.815 161.334,320.864 148.487,320.489 148.255 C 320.318 148.149,319.733 148.421,319.189 148.858 M71.365 154.565 C 68.578 157.351,66.408 159.742,66.543 159.877 C 66.678 160.012,67.184 159.600,67.666 158.961 C 68.801 157.459,74.259 152.001,75.761 150.866 C 76.400 150.384,76.812 149.878,76.677 149.743 C 76.542 149.608,74.151 151.778,71.365 154.565 M263.800 152.400 C 264.883 153.500,265.860 154.400,265.970 154.400 C 266.080 154.400,265.283 153.500,264.200 152.400 C 263.117 151.300,262.140 150.400,262.030 150.400 C 261.920 150.400,262.717 151.300,263.800 152.400 M315.100 151.029 C 313.605 151.840,313.696 152.178,315.200 151.400 C 315.860 151.059,316.400 150.694,316.400 150.590 C 316.400 150.332,316.357 150.347,315.100 151.029 M360.435 152.800 C 355.773 156.083,355.392 156.668,359.906 153.613 C 363.036 151.494,364.477 150.348,363.924 150.415 C 363.856 150.423,362.286 151.496,360.435 152.800 M51.869 152.942 C 50.607 154.483,48.279 158.121,48.890 157.600 C 49.265 157.279,53.579 151.200,53.431 151.200 C 53.357 151.200,52.654 151.984,51.869 152.942 M347.400 153.450 C 345.640 154.670,343.930 155.953,343.600 156.300 C 342.941 156.993,349.441 152.633,350.386 151.749 C 351.470 150.733,350.618 151.219,347.400 153.450 M155.674 153.866 C 154.945 154.865,154.416 155.749,154.497 155.830 C 154.579 155.912,155.314 155.083,156.130 153.989 C 156.947 152.895,157.477 152.011,157.308 152.025 C 157.138 152.038,156.404 152.867,155.674 153.866 M287.038 155.270 C 289.527 158.943,289.964 159.496,289.193 158.000 C 288.407 156.472,285.656 152.482,285.192 152.195 C 284.966 152.055,285.796 153.439,287.038 155.270 M312.000 152.836 C 311.336 153.379,311.269 153.515,311.800 153.240 C 313.105 152.566,313.828 152.012,313.400 152.015 C 313.180 152.017,312.550 152.386,312.000 152.836 M182.450 155.200 C 184.521 158.394,185.232 159.180,183.978 156.890 C 183.463 155.949,182.529 154.599,181.903 153.890 C 181.103 152.983,181.265 153.373,182.450 155.200 M307.900 155.029 C 306.405 155.840,306.496 156.178,308.000 155.400 C 308.660 155.059,309.200 154.694,309.200 154.590 C 309.200 154.332,309.157 154.347,307.900 155.029 M268.206 156.758 C 269.090 157.771,270.217 159.122,270.712 159.761 C 271.207 160.400,271.697 160.836,271.803 160.730 C 271.908 160.625,270.781 159.274,269.297 157.728 C 267.814 156.182,267.323 155.745,268.206 156.758 M304.311 156.960 C 302.216 158.205,301.884 158.663,303.800 157.665 C 305.805 156.620,306.719 156.003,306.200 156.044 C 305.980 156.061,305.130 156.474,304.311 156.960 M152.708 158.500 C 151.833 159.849,151.048 161.456,151.487 161.000 C 152.048 160.417,153.698 157.600,153.479 157.600 C 153.376 157.600,153.029 158.005,152.708 158.500 M350.600 159.672 C 346.641 162.466,346.397 162.908,350.200 160.394 C 353.935 157.926,353.780 158.043,353.567 157.847 C 353.475 157.764,352.140 158.584,350.600 159.672 M47.453 159.591 C 46.453 161.102,46.015 162.196,46.736 161.380 C 47.292 160.752,48.879 158.000,48.686 158.000 C 48.587 158.000,48.032 158.716,47.453 159.591 M300.700 159.029 C 299.205 159.840,299.296 160.178,300.800 159.400 C 301.460 159.059,302.000 158.694,302.000 158.590 C 302.000 158.332,301.957 158.347,300.700 159.029 M337.000 160.650 C 335.240 161.870,333.530 163.153,333.200 163.500 C 332.541 164.193,339.041 159.833,339.986 158.949 C 341.070 157.933,340.218 158.419,337.000 160.650 M186.690 162.263 C 187.740 164.278,188.657 165.871,188.726 165.804 C 188.907 165.628,186.184 160.347,185.422 159.400 C 185.069 158.960,185.639 160.248,186.690 162.263 M290.430 160.600 C 290.924 161.480,291.500 162.380,291.710 162.600 C 292.309 163.228,290.939 160.694,290.196 159.800 C 289.830 159.360,289.935 159.720,290.430 160.600 M65.544 161.100 C 64.275 162.632,63.819 163.342,64.281 163.065 C 64.793 162.758,66.569 160.400,66.289 160.400 C 66.198 160.400,65.863 160.715,65.544 161.100 M296.300 161.429 C 294.805 162.240,294.896 162.578,296.400 161.800 C 297.060 161.459,297.600 161.094,297.600 160.990 C 297.600 160.732,297.557 160.747,296.300 161.429 M274.024 164.249 C 276.337 167.700,277.178 168.749,276.388 167.200 C 275.594 165.641,272.854 161.680,272.358 161.374 C 272.113 161.223,272.863 162.516,274.024 164.249 M293.200 163.025 C 292.234 163.391,292.055 163.562,292.624 163.577 C 293.076 163.590,293.796 163.336,294.224 163.013 C 295.135 162.323,295.053 162.324,293.200 163.025 M168.400 163.644 C 167.887 164.013,167.898 164.044,168.473 163.861 C 168.956 163.707,169.505 164.205,170.415 165.623 C 171.685 167.602,172.486 168.395,171.504 166.700 C 169.328 162.947,169.346 162.964,168.400 163.644 M342.029 165.615 C 340.175 166.917,338.465 168.194,338.229 168.452 C 337.993 168.710,339.468 167.792,341.506 166.413 C 344.601 164.318,346.125 163.108,345.524 163.224 C 345.456 163.237,343.883 164.313,342.029 165.615 M328.441 167.014 C 326.624 169.084,327.604 172.864,329.936 172.775 C 330.424 172.756,330.373 172.658,329.743 172.403 C 327.440 171.474,327.037 169.069,328.841 167.014 C 329.524 166.236,329.993 165.600,329.883 165.600 C 329.773 165.600,329.124 166.236,328.441 167.014 M43.023 168.206 C 42.160 170.272,42.274 170.506,43.247 168.662 C 43.693 167.816,43.965 167.032,43.852 166.919 C 43.739 166.806,43.366 167.385,43.023 168.206 M165.386 168.100 L 164.752 169.400 165.567 168.400 C 166.352 167.437,166.608 166.800,166.210 166.800 C 166.106 166.800,165.735 167.385,165.386 168.100 M60.586 168.500 L 59.952 169.800 60.767 168.800 C 61.552 167.837,61.808 167.200,61.410 167.200 C 61.306 167.200,60.935 167.785,60.586 168.500 M334.448 170.831 C 332.824 171.914,331.721 172.800,331.997 172.800 C 332.497 172.800,337.600 169.321,337.600 168.980 C 337.600 168.722,337.677 168.677,334.448 170.831 M173.400 170.800 C 173.741 171.460,174.111 172.000,174.221 172.000 C 174.331 172.000,174.141 171.460,173.800 170.800 C 173.459 170.140,173.089 169.600,172.979 169.600 C 172.869 169.600,173.059 170.140,173.400 170.800 M190.650 170.400 C 191.025 171.905,191.934 173.884,191.938 173.200 C 191.939 172.870,191.594 171.880,191.171 171.000 C 190.748 170.120,190.514 169.850,190.650 170.400 M278.199 171.197 C 278.539 171.856,278.999 172.871,279.220 173.453 C 279.441 174.035,279.719 174.414,279.838 174.295 C 280.069 174.064,278.124 170.000,277.783 170.000 C 277.671 170.000,277.858 170.539,278.199 171.197 M192.012 174.400 C 192.012 174.730,192.187 175.270,192.400 175.600 C 192.745 176.133,192.788 176.133,192.788 175.600 C 192.788 175.270,192.613 174.730,192.400 174.400 C 192.055 173.867,192.012 173.867,192.012 174.400 M192.856 176.800 C 192.856 177.130,193.011 177.760,193.200 178.200 C 193.417 178.704,193.544 178.778,193.544 178.400 C 193.544 178.070,193.389 177.440,193.200 177.000 C 192.983 176.496,192.856 176.422,192.856 176.800 M176.812 178.800 C 176.812 179.130,176.987 179.670,177.200 180.000 C 177.545 180.533,177.588 180.533,177.588 180.000 C 177.588 179.670,177.413 179.130,177.200 178.800 C 176.855 178.267,176.812 178.267,176.812 178.800 M55.400 180.000 C 55.250 180.473,55.217 180.950,55.327 181.060 C 55.437 181.170,55.650 180.873,55.800 180.400 C 55.950 179.927,55.983 179.450,55.873 179.340 C 55.763 179.230,55.550 179.527,55.400 180.000 M143.473 180.153 C 143.323 180.545,143.211 181.166,143.225 181.533 C 143.242 181.975,143.381 181.874,143.637 181.234 C 143.849 180.703,143.961 180.082,143.885 179.854 C 143.809 179.627,143.624 179.761,143.473 180.153 M193.844 180.600 C 194.173 182.071,194.402 182.390,194.394 181.367 C 194.391 180.945,194.205 180.330,193.982 180.000 C 193.685 179.562,193.648 179.724,193.844 180.600 M38.629 181.429 C 38.481 182.015,38.438 182.572,38.532 182.666 C 38.627 182.760,38.824 182.358,38.971 181.771 C 39.119 181.185,39.162 180.628,39.068 180.534 C 38.973 180.440,38.776 180.842,38.629 181.429 M159.429 181.829 C 159.281 182.415,159.238 182.972,159.332 183.066 C 159.427 183.160,159.624 182.758,159.771 182.171 C 159.919 181.585,159.962 181.028,159.868 180.934 C 159.773 180.840,159.576 181.242,159.429 181.829 M282.412 182.000 C 282.412 182.330,282.587 182.870,282.800 183.200 C 283.145 183.733,283.188 183.733,283.188 183.200 C 283.188 182.870,283.013 182.330,282.800 182.000 C 282.455 181.467,282.412 181.467,282.412 182.000 M319.689 188.400 C 319.639 192.030,319.518 197.610,319.422 200.800 L 319.247 206.600 319.628 201.800 C 319.837 199.160,319.957 193.580,319.895 189.400 L 319.782 181.800 319.689 188.400 M142.656 183.684 C 142.521 184.188,142.427 184.960,142.446 185.400 C 142.465 185.840,142.645 185.498,142.846 184.640 C 143.236 182.978,143.070 182.140,142.656 183.684 M194.662 184.200 C 194.796 185.080,194.972 185.875,195.053 185.967 C 195.356 186.310,195.129 184.168,194.781 183.400 C 194.529 182.842,194.493 183.085,194.662 184.200 M37.822 185.022 C 37.672 185.825,37.628 186.562,37.726 186.660 C 37.824 186.757,38.027 186.181,38.178 185.378 C 38.328 184.575,38.372 183.838,38.274 183.740 C 38.176 183.643,37.973 184.219,37.822 185.022 M158.600 184.800 C 158.448 185.491,158.414 186.147,158.524 186.257 C 158.634 186.367,158.848 185.891,159.000 185.200 C 159.152 184.509,159.186 183.853,159.076 183.743 C 158.966 183.633,158.752 184.109,158.600 184.800 M178.456 184.000 C 178.456 184.330,178.611 184.960,178.800 185.400 C 179.017 185.904,179.144 185.978,179.144 185.600 C 179.144 185.270,178.989 184.640,178.800 184.200 C 178.583 183.696,178.456 183.622,178.456 184.000 M53.850 185.650 C 53.517 187.317,53.840 187.640,54.200 186.000 C 54.352 185.309,54.393 184.659,54.291 184.558 C 54.189 184.456,53.991 184.947,53.850 185.650 M283.256 185.000 C 283.256 185.440,283.411 186.160,283.600 186.600 L 283.944 187.400 283.944 186.600 C 283.944 186.160,283.789 185.440,283.600 185.000 L 283.256 184.200 283.256 185.000 M141.859 188.288 C 141.721 189.119,141.630 190.520,141.656 191.400 C 141.687 192.447,141.823 191.973,142.048 190.030 C 142.411 186.896,142.283 185.719,141.859 188.288 M179.287 187.600 C 179.283 188.150,179.424 189.050,179.600 189.600 C 180.031 190.944,180.031 189.492,179.600 187.800 C 179.326 186.722,179.294 186.702,179.287 187.600 M195.477 189.000 C 195.600 190.320,195.768 191.475,195.850 191.567 C 196.118 191.864,195.915 189.034,195.580 187.800 C 195.365 187.011,195.330 187.422,195.477 189.000 M157.822 188.622 C 157.672 189.425,157.628 190.162,157.726 190.260 C 157.824 190.357,158.027 189.781,158.178 188.978 C 158.328 188.175,158.372 187.438,158.274 187.340 C 158.176 187.243,157.973 187.819,157.822 188.622 M37.057 189.900 C 36.723 191.920,36.775 207.001,37.123 208.960 C 37.275 209.819,37.400 205.544,37.400 199.460 C 37.400 193.377,37.379 188.400,37.352 188.400 C 37.326 188.400,37.193 189.075,37.057 189.900 M53.000 190.000 C 52.846 190.910,52.804 191.738,52.907 191.840 C 53.010 191.943,53.213 191.277,53.360 190.360 C 53.507 189.443,53.548 188.615,53.453 188.520 C 53.358 188.424,53.154 189.090,53.000 190.000 M284.075 189.000 C 284.086 189.440,284.232 190.340,284.400 191.000 L 284.705 192.200 284.725 191.000 C 284.735 190.340,284.589 189.440,284.400 189.000 L 284.056 188.200 284.075 189.000 M157.059 194.100 C 156.752 196.659,156.799 201.300,157.167 204.800 C 157.342 206.461,157.434 204.618,157.421 199.700 C 157.398 191.080,157.406 191.212,157.059 194.100 M180.085 193.400 C 180.077 194.280,180.210 195.900,180.382 197.000 L 180.693 199.000 180.717 197.200 C 180.730 196.210,180.597 194.590,180.420 193.600 L 180.100 191.800 180.085 193.400 M52.557 198.800 C 52.557 201.770,52.620 202.985,52.697 201.500 C 52.774 200.015,52.774 197.585,52.697 196.100 C 52.620 194.615,52.557 195.830,52.557 198.800 M284.996 200.800 C 284.998 204.895,285.121 207.396,285.270 206.400 C 285.607 204.161,285.598 198.978,285.252 195.800 C 285.095 194.352,284.993 196.334,284.996 200.800 M196.162 201.000 C 196.162 204.520,196.224 205.906,196.298 204.081 C 196.372 202.256,196.372 199.376,196.297 197.681 C 196.222 195.986,196.161 197.480,196.162 201.000 M329.062 200.300 C 328.960 200.465,337.795 200.552,348.697 200.493 C 366.169 200.398,368.641 200.460,369.559 201.016 L 370.600 201.647 369.656 200.824 C 368.681 199.974,329.575 199.469,329.062 200.300 M370.552 202.763 C 370.853 204.167,369.824 206.330,368.726 206.599 C 368.217 206.723,359.042 206.775,348.338 206.713 C 337.634 206.651,328.960 206.735,329.062 206.900 C 329.164 207.065,338.155 207.200,349.042 207.200 L 368.836 207.200 369.802 206.234 C 370.999 205.037,371.420 203.490,370.809 202.529 C 370.396 201.880,370.368 201.905,370.552 202.763 M180.258 206.359 C 180.107 207.986,180.061 209.395,180.157 209.490 C 180.406 209.739,180.921 204.563,180.710 203.930 C 180.613 203.639,180.410 204.732,180.258 206.359 M141.647 207.233 C 141.673 208.645,141.834 210.340,142.005 211.000 C 142.179 211.672,142.221 210.616,142.102 208.600 C 141.852 204.372,141.579 203.553,141.647 207.233 M52.840 207.833 C 52.862 208.475,53.033 209.450,53.220 210.000 C 53.449 210.674,53.484 210.349,53.328 209.000 C 53.069 206.750,52.779 206.059,52.840 207.833 M157.680 209.600 C 157.680 210.150,157.824 211.050,158.000 211.600 L 158.320 212.600 158.320 211.600 C 158.320 211.050,158.176 210.150,158.000 209.600 L 157.680 208.600 157.680 209.600 M284.222 211.022 C 284.072 211.825,284.028 212.562,284.126 212.660 C 284.224 212.757,284.427 212.181,284.578 211.378 C 284.728 210.575,284.772 209.838,284.674 209.740 C 284.576 209.643,284.373 210.219,284.222 211.022 M195.418 211.818 C 195.265 212.839,195.230 213.763,195.340 213.873 C 195.450 213.983,195.665 213.239,195.818 212.218 C 195.971 211.198,196.006 210.273,195.896 210.163 C 195.786 210.053,195.571 210.798,195.418 211.818 M179.400 212.000 C 179.248 212.691,179.214 213.347,179.324 213.457 C 179.434 213.567,179.648 213.091,179.800 212.400 C 179.952 211.709,179.986 211.053,179.876 210.943 C 179.766 210.833,179.552 211.309,179.400 212.000 M37.680 212.800 C 37.680 213.350,37.824 214.250,38.000 214.800 L 38.320 215.800 38.320 214.800 C 38.320 214.250,38.176 213.350,38.000 212.800 L 37.680 211.800 37.680 212.800 M53.668 212.600 C 53.662 213.040,53.811 213.760,54.000 214.200 C 54.438 215.219,54.438 214.168,54.000 212.800 C 53.743 211.996,53.677 211.957,53.668 212.600 M142.468 214.000 C 142.462 214.550,142.611 215.360,142.800 215.800 L 143.144 216.600 143.132 215.800 C 143.126 215.360,142.976 214.550,142.800 214.000 L 142.480 213.000 142.468 214.000 M158.468 213.600 C 158.488 214.639,159.118 216.346,159.132 215.400 C 159.138 214.960,158.989 214.240,158.800 213.800 C 158.589 213.310,158.461 213.232,158.468 213.600 M283.400 214.800 C 283.248 215.491,283.207 216.141,283.309 216.242 C 283.411 216.344,283.609 215.853,283.750 215.150 C 283.891 214.447,283.931 213.798,283.841 213.708 C 283.750 213.617,283.552 214.109,283.400 214.800 M178.600 215.600 C 178.448 216.291,178.414 216.947,178.524 217.057 C 178.634 217.167,178.848 216.691,179.000 216.000 C 179.152 215.309,179.186 214.653,179.076 214.543 C 178.966 214.433,178.752 214.909,178.600 215.600 M194.622 216.222 C 194.472 217.025,194.438 217.772,194.548 217.882 C 194.658 217.992,194.872 217.425,195.022 216.622 C 195.173 215.819,195.206 215.073,195.096 214.963 C 194.986 214.853,194.773 215.419,194.622 216.222 M38.456 217.000 C 38.456 217.440,38.611 218.160,38.800 218.600 L 39.144 219.400 39.144 218.600 C 39.144 218.160,38.989 217.440,38.800 217.000 L 38.456 216.200 38.456 217.000 M282.629 217.829 C 282.481 218.415,282.438 218.972,282.532 219.066 C 282.627 219.160,282.824 218.758,282.971 218.171 C 283.119 217.585,283.162 217.028,283.068 216.934 C 282.973 216.840,282.776 217.242,282.629 217.829 M143.268 217.800 C 143.262 218.240,143.411 218.960,143.600 219.400 C 144.038 220.419,144.038 219.368,143.600 218.000 C 143.343 217.196,143.277 217.157,143.268 217.800 M177.800 218.400 C 177.650 218.873,177.617 219.350,177.727 219.460 C 177.837 219.570,178.050 219.273,178.200 218.800 C 178.350 218.327,178.383 217.850,178.273 217.740 C 178.163 217.630,177.950 217.927,177.800 218.400 M318.889 224.400 C 318.838 228.030,318.719 233.610,318.623 236.800 L 318.449 242.600 318.824 237.400 C 319.029 234.540,319.149 228.960,319.089 225.000 L 318.981 217.800 318.889 224.400 M193.829 219.829 C 193.681 220.415,193.638 220.972,193.732 221.066 C 193.827 221.160,194.024 220.758,194.171 220.171 C 194.319 219.585,194.362 219.028,194.268 218.934 C 194.173 218.840,193.976 219.242,193.829 219.829 M160.012 219.600 C 160.012 219.930,160.187 220.470,160.400 220.800 C 160.745 221.333,160.788 221.333,160.788 220.800 C 160.788 220.470,160.613 219.930,160.400 219.600 C 160.055 219.067,160.012 219.067,160.012 219.600 M39.234 220.200 C 39.222 220.640,39.387 221.270,39.600 221.600 C 40.114 222.395,40.114 221.396,39.600 220.200 L 39.256 219.400 39.234 220.200 M177.000 220.800 C 176.850 221.273,176.817 221.750,176.927 221.860 C 177.037 221.970,177.250 221.673,177.400 221.200 C 177.550 220.727,177.583 220.250,177.473 220.140 C 177.363 220.030,177.150 220.327,177.000 220.800 M144.034 221.000 C 144.022 221.440,144.187 222.070,144.400 222.400 C 144.914 223.195,144.914 222.196,144.400 221.000 L 144.056 220.200 144.034 221.000 M160.828 221.692 C 160.782 222.165,162.086 225.248,162.258 225.075 C 162.345 224.988,162.066 224.125,161.637 223.158 C 161.208 222.191,160.844 221.531,160.828 221.692 M40.012 223.200 C 40.012 223.530,40.187 224.070,40.400 224.400 C 40.745 224.933,40.788 224.933,40.788 224.400 C 40.788 224.070,40.613 223.530,40.400 223.200 C 40.055 222.667,40.012 222.667,40.012 223.200 M279.823 225.406 C 278.960 227.472,279.074 227.706,280.047 225.862 C 280.493 225.016,280.765 224.232,280.652 224.119 C 280.539 224.006,280.166 224.585,279.823 225.406 M192.200 225.200 C 192.050 225.673,192.017 226.150,192.127 226.260 C 192.237 226.370,192.450 226.073,192.600 225.600 C 192.750 225.127,192.783 224.650,192.673 224.540 C 192.563 224.430,192.350 224.727,192.200 225.200 M60.240 230.802 C 60.839 231.903,61.393 232.740,61.471 232.663 C 61.643 232.490,59.608 228.800,59.341 228.800 C 59.236 228.800,59.640 229.701,60.240 230.802 M164.600 230.400 C 164.941 231.060,165.311 231.600,165.421 231.600 C 165.531 231.600,165.341 231.060,165.000 230.400 C 164.659 229.740,164.289 229.200,164.179 229.200 C 164.069 229.200,164.259 229.740,164.600 230.400 M277.028 231.061 C 276.456 232.084,276.069 233.002,276.167 233.101 C 276.266 233.199,276.811 232.362,277.380 231.240 C 278.673 228.688,278.425 228.562,277.028 231.061 M189.472 232.219 C 188.532 234.189,188.664 234.524,189.647 232.662 C 190.093 231.816,190.387 231.054,190.301 230.967 C 190.214 230.881,189.841 231.444,189.472 232.219 M171.908 232.100 C 171.033 233.449,170.248 235.056,170.687 234.600 C 171.248 234.017,172.898 231.200,172.679 231.200 C 172.576 231.200,172.229 231.605,171.908 232.100 M148.038 232.200 C 148.038 232.420,148.561 233.590,149.200 234.800 C 149.839 236.010,150.362 236.820,150.362 236.600 C 150.362 236.380,149.839 235.210,149.200 234.000 C 148.561 232.790,148.038 231.980,148.038 232.200 M44.000 233.343 C 44.000 233.778,46.787 239.200,47.010 239.200 C 47.120 239.200,46.557 237.895,45.758 236.300 C 44.260 233.307,44.000 232.870,44.000 233.343 M169.620 235.776 C 169.357 236.093,168.840 236.256,168.471 236.138 C 167.897 235.955,167.886 235.987,168.400 236.356 C 169.219 236.945,169.334 236.918,169.907 236.000 C 170.487 235.071,170.316 234.938,169.620 235.776 M272.975 237.468 C 272.359 238.276,272.059 238.811,272.309 238.656 C 272.821 238.340,274.553 236.000,274.275 236.000 C 274.176 236.000,273.591 236.661,272.975 237.468 M64.740 237.916 C 65.233 238.609,65.844 239.304,66.097 239.460 C 66.350 239.617,66.154 239.177,65.660 238.484 C 65.167 237.791,64.556 237.096,64.303 236.940 C 64.050 236.783,64.246 237.223,64.740 237.916 M291.702 237.300 C 291.484 237.575,291.092 238.250,290.831 238.800 C 290.278 239.963,291.280 238.890,292.043 237.500 C 292.489 236.690,292.281 236.568,291.702 237.300 M293.400 237.396 C 294.294 238.139,296.828 239.509,296.200 238.910 C 295.980 238.700,295.080 238.124,294.200 237.630 C 293.320 237.135,292.960 237.030,293.400 237.396 M151.000 238.400 C 151.341 239.060,151.711 239.600,151.821 239.600 C 151.931 239.600,151.741 239.060,151.400 238.400 C 151.059 237.740,150.689 237.200,150.579 237.200 C 150.469 237.200,150.659 237.740,151.000 238.400 M186.186 238.900 L 185.552 240.200 186.367 239.200 C 187.152 238.237,187.408 237.600,187.010 237.600 C 186.906 237.600,186.535 238.185,186.186 238.900 M329.700 238.270 C 329.205 238.615,328.800 239.087,328.800 239.319 C 328.800 239.550,329.217 239.348,329.726 238.870 C 330.811 237.850,332.368 237.756,334.020 238.610 C 334.669 238.946,335.200 239.131,335.200 239.021 C 335.200 237.859,331.092 237.298,329.700 238.270 M269.426 241.900 C 268.121 243.385,267.643 244.060,268.364 243.400 C 269.618 242.251,272.212 239.200,271.934 239.200 C 271.860 239.200,270.732 240.415,269.426 241.900 M297.600 239.947 C 298.150 240.394,299.320 241.137,300.200 241.598 C 302.203 242.648,300.694 241.472,298.234 240.066 C 296.885 239.296,296.774 239.275,297.600 239.947 M47.724 240.600 C 48.062 241.260,48.638 242.160,49.004 242.600 C 49.370 243.040,49.265 242.680,48.770 241.800 C 47.680 239.858,46.864 238.922,47.724 240.600 M67.218 241.100 C 69.466 243.681,74.694 248.924,75.800 249.707 C 76.460 250.174,75.290 248.921,73.200 246.923 C 71.110 244.926,68.860 242.555,68.200 241.655 C 67.540 240.755,66.834 240.015,66.630 240.009 C 66.427 240.004,66.692 240.495,67.218 241.100 M289.508 240.900 C 289.187 241.395,288.707 242.250,288.440 242.800 C 287.760 244.203,288.994 242.706,289.841 241.100 C 290.539 239.774,290.323 239.644,289.508 240.900 M328.493 241.200 C 328.493 241.970,328.575 242.285,328.676 241.900 C 328.776 241.515,328.776 240.885,328.676 240.500 C 328.575 240.115,328.493 240.430,328.493 241.200 M183.093 243.816 C 181.845 245.695,181.000 247.124,181.214 246.991 C 181.900 246.567,185.905 240.400,185.494 240.400 C 185.421 240.400,184.340 241.937,183.093 243.816 M338.000 240.950 C 338.000 241.048,339.215 241.893,340.700 242.827 C 342.185 243.761,343.805 244.788,344.300 245.109 C 344.795 245.430,345.200 245.608,345.200 245.505 C 345.200 245.299,340.343 242.021,338.900 241.251 C 338.405 240.988,338.000 240.852,338.000 240.950 M152.800 241.329 C 152.800 241.694,154.845 244.800,155.086 244.800 C 155.279 244.800,153.692 242.048,153.136 241.420 C 152.951 241.211,152.800 241.170,152.800 241.329 M329.184 243.346 C 330.065 244.460,336.000 248.375,336.000 247.843 C 336.000 247.741,334.914 246.998,333.587 246.192 C 332.259 245.386,330.594 244.249,329.887 243.667 C 329.179 243.085,328.863 242.940,329.184 243.346 M303.800 243.796 C 304.694 244.539,307.228 245.909,306.600 245.310 C 306.380 245.100,305.480 244.524,304.600 244.030 C 303.720 243.535,303.360 243.430,303.800 243.796 M155.940 246.316 C 156.433 247.009,157.044 247.704,157.297 247.860 C 157.550 248.017,157.354 247.577,156.860 246.884 C 156.367 246.191,155.756 245.496,155.503 245.340 C 155.250 245.183,155.446 245.623,155.940 246.316 M286.344 245.900 C 285.075 247.432,284.619 248.142,285.081 247.865 C 285.593 247.558,287.369 245.200,287.089 245.200 C 286.998 245.200,286.663 245.515,286.344 245.900 M307.200 245.720 C 307.200 245.910,310.941 248.425,312.300 249.149 C 314.115 250.115,313.130 249.228,310.700 247.707 C 307.364 245.619,307.200 245.526,307.200 245.720 M51.677 246.730 C 53.360 249.078,57.046 253.566,57.306 253.582 C 57.474 253.592,56.233 251.890,54.548 249.800 C 52.864 247.710,51.411 246.000,51.320 246.000 C 51.229 246.000,51.390 246.328,51.677 246.730 M346.800 246.536 C 346.800 246.637,348.258 247.646,350.040 248.777 C 351.822 249.908,353.712 251.117,354.240 251.463 C 354.768 251.809,355.200 252.000,355.200 251.887 C 355.200 251.774,353.535 250.613,351.500 249.306 C 347.056 246.452,346.800 246.302,346.800 246.536 M262.975 248.500 L 261.800 249.800 263.100 248.625 C 263.815 247.979,264.400 247.394,264.400 247.325 C 264.400 247.016,264.070 247.288,262.975 248.500 M157.600 248.706 C 157.600 248.948,156.070 250.250,154.200 251.600 C 152.330 252.950,150.800 254.144,150.800 254.253 C 150.800 254.506,154.969 251.587,156.803 250.049 C 157.571 249.405,158.065 248.740,157.900 248.572 C 157.735 248.404,157.600 248.464,157.600 248.706 M180.000 249.170 C 180.000 249.376,180.540 249.930,181.200 250.400 C 181.860 250.870,182.400 251.182,182.400 251.093 C 182.400 251.005,181.860 250.451,181.200 249.863 C 180.540 249.275,180.000 248.963,180.000 249.170 M337.600 248.897 C 337.600 249.105,341.262 251.584,342.700 252.349 C 344.406 253.257,343.595 252.466,341.500 251.177 C 340.345 250.467,338.995 249.621,338.500 249.297 C 338.005 248.973,337.600 248.793,337.600 248.897 M259.800 250.832 C 257.427 252.626,257.108 253.132,259.333 251.572 C 261.014 250.394,261.929 249.575,261.524 249.611 C 261.456 249.617,260.680 250.167,259.800 250.832 M314.200 250.196 C 315.094 250.939,317.628 252.309,317.000 251.710 C 316.780 251.500,315.880 250.924,315.000 250.430 C 314.120 249.935,313.760 249.830,314.200 250.196 M77.369 250.749 C 77.759 251.382,80.001 252.899,79.995 252.527 C 79.992 252.347,79.343 251.781,78.552 251.268 C 77.760 250.755,77.228 250.522,77.369 250.749 M278.000 255.569 C 275.250 258.380,272.100 261.445,271.000 262.380 C 269.072 264.018,269.065 264.031,270.800 262.759 C 273.706 260.627,284.113 250.226,283.137 250.428 C 283.062 250.444,280.750 252.757,278.000 255.569 M182.800 251.353 C 182.800 251.596,187.566 254.961,188.800 255.589 C 189.350 255.869,189.620 255.920,189.400 255.703 C 188.785 255.098,182.800 251.152,182.800 251.353 M255.681 253.772 C 253.823 255.085,253.562 255.461,255.131 254.562 C 255.863 254.143,256.650 253.575,256.880 253.300 C 257.471 252.593,257.193 252.702,255.681 253.772 M358.000 253.750 C 358.000 253.895,361.280 256.043,363.500 257.352 C 364.892 258.173,363.730 257.135,361.900 255.922 C 359.481 254.318,358.000 253.494,358.000 253.750 M60.000 256.600 C 61.417 258.030,62.667 259.200,62.777 259.200 C 62.887 259.200,61.817 258.030,60.400 256.600 C 58.983 255.170,57.733 254.000,57.623 254.000 C 57.513 254.000,58.583 255.170,60.000 256.600 M346.400 254.520 C 346.400 254.710,350.141 257.225,351.500 257.949 C 353.315 258.915,352.330 258.028,349.900 256.507 C 346.564 254.419,346.400 254.326,346.400 254.520 M249.400 257.238 C 247.420 258.301,245.939 259.177,246.108 259.185 C 246.540 259.206,253.600 255.635,253.600 255.396 C 253.600 255.039,253.033 255.288,249.400 257.238 M85.600 256.162 C 85.600 256.483,91.243 259.290,91.458 259.076 C 91.554 258.979,90.411 258.293,88.917 257.551 C 85.456 255.833,85.600 255.893,85.600 256.162 M63.221 259.481 C 63.242 259.804,67.292 263.255,68.918 264.337 C 70.152 265.157,69.456 264.489,66.100 261.632 C 64.505 260.274,63.209 259.306,63.221 259.481 M243.400 260.029 C 242.520 260.452,242.250 260.686,242.800 260.549 C 243.933 260.267,246.012 259.225,245.400 259.246 C 245.180 259.253,244.280 259.606,243.400 260.029 M354.000 259.297 C 354.000 259.505,357.662 261.984,359.100 262.749 C 360.806 263.657,359.995 262.866,357.900 261.577 C 356.745 260.867,355.395 260.021,354.900 259.697 C 354.405 259.373,354.000 259.193,354.000 259.297 M368.046 260.499 C 368.791 261.261,369.474 261.821,369.564 261.744 C 369.804 261.540,368.334 259.993,367.450 259.520 C 367.033 259.297,367.301 259.737,368.046 260.499 M165.600 262.840 C 162.347 265.372,161.645 266.097,164.000 264.492 C 165.918 263.184,168.733 260.838,168.400 260.824 C 168.290 260.820,167.030 261.727,165.600 262.840 M169.622 261.063 C 169.663 261.685,176.908 267.007,179.600 268.393 C 181.197 269.216,180.398 268.584,176.778 266.163 C 174.920 264.920,172.545 263.188,171.500 262.314 C 170.455 261.441,169.610 260.877,169.622 261.063 M99.400 262.000 C 99.840 262.189,100.470 262.344,100.800 262.344 C 101.178 262.344,101.104 262.217,100.600 262.000 C 100.160 261.811,99.530 261.656,99.200 261.656 C 98.822 261.656,98.896 261.783,99.400 262.000 M132.200 262.000 L 131.400 262.344 132.200 262.344 C 132.640 262.344,133.360 262.189,133.800 262.000 L 134.600 261.656 133.800 261.656 C 133.360 261.656,132.640 261.811,132.200 262.000 M204.000 262.000 C 204.330 262.213,204.960 262.378,205.400 262.366 L 206.200 262.344 205.400 262.000 C 204.204 261.486,203.205 261.486,204.000 262.000 M237.000 262.000 C 236.496 262.217,236.422 262.344,236.800 262.344 C 237.130 262.344,237.760 262.189,238.200 262.000 C 238.704 261.783,238.778 261.656,238.400 261.656 C 238.070 261.656,237.440 261.811,237.000 262.000 M103.200 262.800 C 103.750 262.976,104.560 263.120,105.000 263.120 C 105.633 263.120,105.592 263.054,104.800 262.800 C 104.250 262.624,103.440 262.480,103.000 262.480 C 102.367 262.480,102.408 262.546,103.200 262.800 M128.200 262.800 L 127.400 263.144 128.200 263.132 C 128.640 263.126,129.450 262.976,130.000 262.800 L 131.000 262.480 130.000 262.468 C 129.450 262.462,128.640 262.611,128.200 262.800 M207.600 262.800 C 208.150 262.976,208.960 263.126,209.400 263.132 L 210.200 263.144 209.400 262.800 C 208.960 262.611,208.150 262.462,207.600 262.468 L 206.600 262.480 207.600 262.800 M232.800 262.800 C 232.008 263.054,231.967 263.120,232.600 263.120 C 233.040 263.120,233.850 262.976,234.400 262.800 C 235.192 262.546,235.233 262.480,234.600 262.480 C 234.160 262.480,233.350 262.624,232.800 262.800 M107.800 263.600 C 108.460 263.768,109.540 263.905,110.200 263.905 L 111.400 263.905 110.200 263.600 C 109.540 263.432,108.460 263.295,107.800 263.295 L 106.600 263.295 107.800 263.600 M122.800 263.600 C 121.738 263.824,121.641 263.902,122.400 263.924 C 122.950 263.941,124.120 263.805,125.000 263.623 C 126.334 263.347,126.400 263.293,125.400 263.299 C 124.740 263.302,123.570 263.438,122.800 263.600 M212.600 263.623 C 213.480 263.805,214.650 263.944,215.200 263.931 C 215.841 263.916,215.626 263.789,214.600 263.577 C 213.720 263.395,212.550 263.256,212.000 263.269 C 211.359 263.284,211.574 263.411,212.600 263.623 M227.400 263.600 L 226.200 263.905 227.400 263.905 C 228.060 263.905,229.140 263.768,229.800 263.600 L 231.000 263.295 229.800 263.295 C 229.140 263.295,228.060 263.432,227.400 263.600 M369.232 264.071 C 369.214 264.440,368.726 265.115,368.146 265.571 C 367.566 266.027,367.265 266.400,367.476 266.400 C 368.143 266.400,369.695 264.481,369.474 263.929 C 369.330 263.566,369.253 263.611,369.232 264.071 M114.500 264.294 C 115.545 264.376,117.255 264.376,118.300 264.294 C 119.345 264.212,118.490 264.144,116.400 264.144 C 114.310 264.144,113.455 264.212,114.500 264.294 M219.300 264.294 C 220.345 264.376,222.055 264.376,223.100 264.294 C 224.145 264.212,223.290 264.144,221.200 264.144 C 219.110 264.144,218.255 264.212,219.300 264.294 M266.051 265.813 C 262.904 267.975,262.475 268.414,264.710 267.183 C 266.263 266.328,269.282 264.012,268.800 264.047 C 268.690 264.055,267.453 264.849,266.051 265.813 M361.600 264.147 C 361.600 264.463,364.876 266.441,365.207 266.324 C 365.400 266.256,364.667 265.705,363.579 265.100 C 362.490 264.495,361.600 264.066,361.600 264.147 M158.884 267.466 C 157.940 268.035,157.248 268.581,157.347 268.680 C 157.524 268.857,160.800 266.833,160.800 266.547 C 160.800 266.321,160.717 266.360,158.884 267.466 M74.200 267.796 C 75.094 268.539,77.628 269.909,77.000 269.310 C 76.780 269.100,75.880 268.524,75.000 268.030 C 74.120 267.535,73.760 267.430,74.200 267.796 M260.900 269.026 C 259.012 270.158,258.577 270.749,260.300 269.841 C 261.509 269.203,263.116 268.031,262.800 268.017 C 262.690 268.012,261.835 268.466,260.900 269.026 M181.600 269.564 C 182.150 270.014,182.780 270.383,183.000 270.385 C 183.428 270.388,182.705 269.834,181.400 269.160 C 180.869 268.885,180.936 269.021,181.600 269.564 M78.400 270.367 C 79.363 271.152,80.000 271.408,80.000 271.010 C 80.000 270.906,79.415 270.535,78.700 270.186 L 77.400 269.552 78.400 270.367 M153.500 270.626 C 152.455 271.170,151.600 271.705,151.600 271.814 C 151.600 271.924,152.500 271.557,153.600 271.000 C 154.700 270.443,155.600 269.900,155.600 269.793 C 155.600 269.529,155.636 269.514,153.500 270.626 M183.600 270.598 C 183.600 270.867,187.649 272.884,187.829 272.705 C 187.911 272.623,186.993 272.073,185.789 271.482 C 184.585 270.892,183.600 270.494,183.600 270.598 M82.000 272.195 C 82.000 272.405,84.735 273.611,85.149 273.583 C 85.470 273.562,82.701 272.039,82.300 272.017 C 82.135 272.008,82.000 272.088,82.000 272.195 M90.000 275.600 C 90.330 275.813,90.870 275.988,91.200 275.988 C 91.733 275.988,91.733 275.945,91.200 275.600 C 90.870 275.387,90.330 275.212,90.000 275.212 C 89.467 275.212,89.467 275.255,90.000 275.600 M246.400 275.600 C 245.867 275.945,245.867 275.988,246.400 275.988 C 246.730 275.988,247.270 275.813,247.600 275.600 C 248.133 275.255,248.133 275.212,247.600 275.212 C 247.270 275.212,246.730 275.387,246.400 275.600 M139.200 276.400 C 138.667 276.745,138.667 276.788,139.200 276.788 C 139.530 276.788,140.070 276.613,140.400 276.400 C 140.933 276.055,140.933 276.012,140.400 276.012 C 140.070 276.012,139.530 276.187,139.200 276.400 M197.200 276.400 C 197.530 276.613,198.160 276.778,198.600 276.766 L 199.400 276.744 198.600 276.400 C 197.404 275.886,196.405 275.886,197.200 276.400 M243.800 276.400 C 243.296 276.617,243.222 276.744,243.600 276.744 C 243.930 276.744,244.560 276.589,245.000 276.400 C 245.504 276.183,245.578 276.056,245.200 276.056 C 244.870 276.056,244.240 276.211,243.800 276.400 M95.600 277.200 C 95.930 277.413,96.560 277.578,97.000 277.566 L 97.800 277.544 97.000 277.200 C 95.804 276.686,94.805 276.686,95.600 277.200 M136.200 277.200 C 135.696 277.417,135.622 277.544,136.000 277.544 C 136.330 277.544,136.960 277.389,137.400 277.200 C 137.904 276.983,137.978 276.856,137.600 276.856 C 137.270 276.856,136.640 277.011,136.200 277.200 M200.200 277.200 C 200.640 277.389,201.270 277.544,201.600 277.544 C 201.978 277.544,201.904 277.417,201.400 277.200 C 200.960 277.011,200.330 276.856,200.000 276.856 C 199.622 276.856,199.696 276.983,200.200 277.200 M240.600 277.200 L 239.800 277.544 240.600 277.566 C 241.040 277.578,241.670 277.413,242.000 277.200 C 242.795 276.686,241.796 276.686,240.600 277.200 M133.000 278.000 C 132.496 278.217,132.422 278.344,132.800 278.344 C 133.130 278.344,133.760 278.189,134.200 278.000 C 134.704 277.783,134.778 277.656,134.400 277.656 C 134.070 277.656,133.440 277.811,133.000 278.000 M203.400 278.000 C 203.840 278.189,204.470 278.344,204.800 278.344 C 205.178 278.344,205.104 278.217,204.600 278.000 C 204.160 277.811,203.530 277.656,203.200 277.656 C 202.822 277.656,202.896 277.783,203.400 278.000 M102.800 278.800 C 103.350 278.976,104.340 279.117,105.000 279.113 L 106.200 279.105 105.000 278.800 C 104.340 278.632,103.350 278.491,102.800 278.487 L 101.800 278.480 102.800 278.800 M128.200 278.800 C 127.130 279.072,127.108 279.105,128.000 279.105 C 128.550 279.105,129.540 278.968,130.200 278.800 C 131.270 278.528,131.292 278.495,130.400 278.495 C 129.850 278.495,128.860 278.632,128.200 278.800 M207.400 278.800 C 208.060 278.968,209.050 279.105,209.600 279.105 C 210.492 279.105,210.470 279.072,209.400 278.800 C 208.740 278.632,207.750 278.495,207.200 278.495 C 206.308 278.495,206.330 278.528,207.400 278.800 M232.600 278.800 L 231.400 279.105 232.600 279.113 C 233.260 279.117,234.250 278.976,234.800 278.800 L 235.800 278.480 234.800 278.487 C 234.250 278.491,233.260 278.632,232.600 278.800 M109.000 279.665 C 110.100 279.811,113.430 279.930,116.400 279.930 C 119.370 279.930,122.700 279.811,123.800 279.665 C 124.900 279.519,121.570 279.400,116.400 279.400 C 111.230 279.400,107.900 279.519,109.000 279.665 M213.800 279.665 C 214.900 279.811,218.230 279.930,221.200 279.930 C 224.170 279.930,227.500 279.811,228.600 279.665 C 229.700 279.519,226.370 279.400,221.200 279.400 C 216.030 279.400,212.700 279.519,213.800 279.665 " stroke="none" fill="#c4ccfc" fill-rule="evenodd"></path><path id="path4" d="M112.880 119.898 C 114.794 119.971,118.034 119.971,120.080 119.898 C 122.126 119.826,120.560 119.766,116.600 119.765 C 112.640 119.765,110.966 119.824,112.880 119.898 M217.680 119.898 C 219.594 119.971,222.834 119.971,224.880 119.898 C 226.926 119.826,225.360 119.766,221.400 119.765 C 217.440 119.765,215.766 119.824,217.680 119.898 M104.305 120.683 C 104.802 120.779,105.522 120.775,105.905 120.675 C 106.287 120.575,105.880 120.496,105.000 120.501 C 104.120 120.505,103.807 120.587,104.305 120.683 M127.700 120.676 C 128.085 120.776,128.715 120.776,129.100 120.676 C 129.485 120.575,129.170 120.493,128.400 120.493 C 127.630 120.493,127.315 120.575,127.700 120.676 M208.705 120.683 C 209.202 120.779,209.922 120.775,210.305 120.675 C 210.687 120.575,210.280 120.496,209.400 120.501 C 208.520 120.505,208.207 120.587,208.705 120.683 M232.305 120.683 C 232.802 120.779,233.522 120.775,233.905 120.675 C 234.287 120.575,233.880 120.496,233.000 120.501 C 232.120 120.505,231.807 120.587,232.305 120.683 M201.600 122.000 C 200.776 122.264,200.741 122.326,201.400 122.354 C 201.840 122.373,202.470 122.213,202.800 122.000 C 203.501 121.547,203.014 121.547,201.600 122.000 M138.833 122.944 C 138.925 123.023,139.540 123.208,140.200 123.356 C 141.076 123.552,141.238 123.515,140.800 123.218 C 140.260 122.853,138.432 122.598,138.833 122.944 M91.200 123.600 C 90.376 123.864,90.341 123.926,91.000 123.954 C 91.440 123.973,92.070 123.813,92.400 123.600 C 93.101 123.147,92.614 123.147,91.200 123.600 M145.146 125.016 C 145.886 125.337,146.696 125.593,146.946 125.584 C 147.196 125.576,146.794 125.306,146.054 124.984 C 145.314 124.663,144.504 124.407,144.254 124.416 C 144.004 124.424,144.406 124.694,145.146 125.016 M85.800 125.578 C 84.920 125.995,84.380 126.336,84.600 126.338 C 85.146 126.342,88.302 124.864,87.800 124.840 C 87.580 124.830,86.680 125.162,85.800 125.578 M188.000 126.600 C 187.450 126.914,187.180 127.172,187.400 127.172 C 187.620 127.172,188.250 126.914,188.800 126.600 C 189.350 126.286,189.620 126.028,189.400 126.028 C 189.180 126.028,188.550 126.286,188.000 126.600 M81.500 127.429 C 79.949 128.270,80.125 128.561,81.700 127.759 C 83.208 126.993,83.475 126.794,82.967 126.816 C 82.765 126.825,82.105 127.101,81.500 127.429 M76.100 130.446 C 74.737 131.319,74.295 131.906,75.500 131.243 C 76.418 130.739,77.856 129.627,77.600 129.619 C 77.490 129.616,76.815 129.988,76.100 130.446 M178.993 131.456 C 176.952 132.809,176.232 133.523,177.826 132.614 C 179.230 131.814,181.101 130.422,180.793 130.409 C 180.679 130.404,179.869 130.875,178.993 131.456 M262.200 131.007 C 262.640 131.366,263.360 131.835,263.800 132.051 L 264.600 132.444 263.800 131.793 C 263.360 131.434,262.640 130.965,262.200 130.749 L 261.400 130.356 262.200 131.007 M71.295 133.411 C 70.143 134.186,69.200 134.908,69.200 135.015 C 69.200 135.121,70.190 134.551,71.400 133.747 C 73.322 132.471,73.887 132.000,73.495 132.000 C 73.437 132.000,72.447 132.635,71.295 133.411 M159.600 132.121 C 159.600 132.212,160.635 132.951,161.900 133.763 C 163.165 134.575,163.708 134.821,163.106 134.310 C 161.918 133.300,159.600 131.853,159.600 132.121 M173.138 135.386 C 172.115 136.137,171.156 136.947,171.009 137.186 C 170.861 137.425,171.744 136.869,172.970 135.952 C 174.907 134.504,175.491 133.971,175.100 134.010 C 175.045 134.015,174.162 134.635,173.138 135.386 M267.200 134.123 C 267.200 134.212,268.235 135.059,269.500 136.004 C 270.765 136.950,271.540 137.411,271.223 137.028 C 270.628 136.311,267.200 133.835,267.200 134.123 M66.800 136.834 L 65.000 138.465 66.900 136.984 C 68.566 135.686,69.059 135.197,68.700 135.201 C 68.645 135.202,67.790 135.936,66.800 136.834 M114.700 136.295 C 115.855 136.376,117.745 136.376,118.900 136.295 C 120.055 136.214,119.110 136.148,116.800 136.148 C 114.490 136.148,113.545 136.214,114.700 136.295 M219.100 136.295 C 220.255 136.376,222.145 136.376,223.300 136.295 C 224.455 136.214,223.510 136.148,221.200 136.148 C 218.890 136.148,217.945 136.214,219.100 136.295 M107.100 137.082 C 107.595 137.178,108.405 137.178,108.900 137.082 C 109.395 136.987,108.990 136.909,108.000 136.909 C 107.010 136.909,106.605 136.987,107.100 137.082 M124.300 137.082 C 124.795 137.178,125.605 137.178,126.100 137.082 C 126.595 136.987,126.190 136.909,125.200 136.909 C 124.210 136.909,123.805 136.987,124.300 137.082 M211.900 137.082 C 212.395 137.178,213.205 137.178,213.700 137.082 C 214.195 136.987,213.790 136.909,212.800 136.909 C 211.810 136.909,211.405 136.987,211.900 137.082 M229.105 137.083 C 229.602 137.179,230.322 137.175,230.705 137.075 C 231.087 136.975,230.680 136.896,229.800 136.901 C 228.920 136.905,228.607 136.987,229.105 137.083 M207.300 137.876 C 207.685 137.976,208.315 137.976,208.700 137.876 C 209.085 137.775,208.770 137.693,208.000 137.693 C 207.230 137.693,206.915 137.775,207.300 137.876 M233.700 137.876 C 234.085 137.976,234.715 137.976,235.100 137.876 C 235.485 137.775,235.170 137.693,234.400 137.693 C 233.630 137.693,233.315 137.775,233.700 137.876 M273.200 139.000 C 273.946 139.770,274.647 140.400,274.757 140.400 C 274.867 140.400,274.346 139.770,273.600 139.000 C 272.854 138.230,272.153 137.600,272.043 137.600 C 271.933 137.600,272.454 138.230,273.200 139.000 M61.935 141.008 C 60.690 142.214,59.796 143.200,59.949 143.200 C 60.102 143.200,61.205 142.210,62.400 141.000 C 65.209 138.156,64.876 138.162,61.935 141.008 M137.200 139.717 C 137.507 140.049,141.600 141.614,141.600 141.400 C 141.600 141.194,139.513 140.275,137.965 139.798 C 137.434 139.634,137.090 139.598,137.200 139.717 M92.900 140.634 C 92.185 140.946,91.600 141.290,91.600 141.398 C 91.600 141.576,94.776 140.451,95.167 140.135 C 95.595 139.788,94.062 140.126,92.900 140.634 M277.800 143.200 C 279.328 144.740,280.669 146.000,280.779 146.000 C 280.889 146.000,279.728 144.740,278.200 143.200 C 276.672 141.660,275.331 140.400,275.221 140.400 C 275.111 140.400,276.272 141.660,277.800 143.200 M142.033 141.752 C 142.441 142.124,146.400 143.993,146.400 143.813 C 146.400 143.588,142.580 141.600,142.147 141.600 C 141.993 141.600,141.942 141.668,142.033 141.752 M57.220 145.779 L 55.440 147.800 57.401 145.914 C 58.479 144.877,59.280 143.967,59.181 143.893 C 59.081 143.819,58.199 144.667,57.220 145.779 M82.246 146.196 C 79.254 148.266,79.060 148.737,82.000 146.794 C 85.076 144.761,85.034 144.794,84.567 144.822 C 84.365 144.834,83.321 145.452,82.246 146.196 M148.433 144.938 C 149.241 145.607,153.600 148.384,153.600 148.230 C 153.600 147.971,148.936 144.800,148.555 144.800 C 148.397 144.800,148.342 144.862,148.433 144.938 M368.101 146.200 C 368.105 147.080,368.187 147.393,368.283 146.895 C 368.379 146.398,368.375 145.678,368.275 145.295 C 368.175 144.913,368.096 145.320,368.101 146.200 M354.850 147.794 C 353.447 148.754,352.097 149.759,351.850 150.025 C 351.602 150.291,352.795 149.579,354.500 148.442 C 356.205 147.306,357.600 146.291,357.600 146.188 C 357.600 145.909,357.604 145.907,354.850 147.794 M183.500 148.614 C 182.455 149.380,181.600 150.096,181.600 150.203 C 181.600 150.311,182.500 149.752,183.600 148.962 C 185.309 147.734,185.923 147.168,185.500 147.210 C 185.445 147.215,184.545 147.847,183.500 148.614 M319.816 147.974 C 319.662 148.223,319.805 148.296,320.171 148.156 C 320.707 147.950,320.799 148.976,320.904 156.361 L 321.024 164.801 321.012 156.333 C 321.001 148.243,320.747 146.468,319.816 147.974 M258.000 148.125 C 258.000 148.224,258.661 148.809,259.468 149.425 C 260.276 150.041,260.811 150.341,260.656 150.091 C 260.340 149.579,258.000 147.847,258.000 148.125 M77.400 149.835 L 76.200 150.866 77.500 150.006 C 78.215 149.533,78.800 149.068,78.800 148.973 C 78.800 148.673,78.631 148.778,77.400 149.835 M363.846 150.996 C 362.772 151.739,361.692 152.565,361.446 152.830 C 361.201 153.095,362.125 152.561,363.500 151.641 C 364.875 150.722,366.000 149.887,366.000 149.785 C 366.000 149.511,365.963 149.532,363.846 150.996 M180.548 150.992 C 180.356 151.490,181.879 153.902,183.330 155.400 C 184.019 156.112,183.128 154.680,181.893 153.092 C 181.248 152.263,180.823 151.318,180.948 150.992 C 181.073 150.666,181.085 150.400,180.975 150.400 C 180.865 150.400,180.673 150.666,180.548 150.992 M261.800 151.056 C 264.386 153.631,268.383 157.151,266.800 155.458 C 265.810 154.400,264.100 152.797,263.000 151.896 C 261.900 150.996,261.360 150.618,261.800 151.056 M285.375 152.132 C 285.991 152.939,286.576 153.600,286.675 153.600 C 286.953 153.600,285.221 151.260,284.709 150.944 C 284.459 150.789,284.759 151.324,285.375 152.132 M71.592 155.100 L 67.800 159.000 71.700 155.208 C 75.322 151.686,75.782 151.200,75.492 151.200 C 75.433 151.200,73.678 152.955,71.592 155.100 M311.900 152.277 C 310.856 152.858,310.063 153.397,310.140 153.473 C 310.300 153.634,314.000 151.614,314.000 151.366 C 314.000 151.115,313.943 151.140,311.900 152.277 M50.085 154.700 C 48.202 157.501,47.905 158.000,48.118 158.000 C 48.208 158.000,49.120 156.740,50.145 155.200 C 51.169 153.660,51.922 152.400,51.818 152.400 C 51.715 152.400,50.934 153.435,50.085 154.700 M154.487 154.900 C 153.027 157.056,152.712 157.600,152.920 157.600 C 153.012 157.600,153.744 156.610,154.547 155.400 C 155.351 154.190,155.925 153.200,155.823 153.200 C 155.722 153.200,155.120 153.965,154.487 154.900 M343.846 155.396 C 342.772 156.139,341.692 156.965,341.446 157.230 C 341.201 157.495,342.125 156.961,343.500 156.041 C 344.875 155.122,346.000 154.287,346.000 154.185 C 346.000 153.911,345.963 153.932,343.846 155.396 M304.700 156.277 C 303.656 156.858,302.863 157.397,302.940 157.473 C 303.100 157.634,306.800 155.614,306.800 155.366 C 306.800 155.115,306.743 155.140,304.700 156.277 M288.524 156.600 C 288.862 157.260,289.438 158.160,289.804 158.600 C 290.170 159.040,290.065 158.680,289.570 157.800 C 288.480 155.858,287.664 154.922,288.524 156.600 M183.949 156.600 C 184.165 157.040,184.634 157.760,184.993 158.200 L 185.644 159.000 185.251 158.200 C 185.035 157.760,184.566 157.040,184.207 156.600 L 183.556 155.800 183.949 156.600 M354.646 157.396 C 353.572 158.139,352.492 158.965,352.246 159.230 C 352.001 159.495,352.925 158.961,354.300 158.041 C 355.675 157.122,356.800 156.287,356.800 156.185 C 356.800 155.911,356.763 155.932,354.646 157.396 M151.753 159.300 C 150.376 161.636,150.286 161.835,150.987 161.000 C 151.800 160.032,152.500 158.800,152.238 158.800 C 152.133 158.800,151.915 159.025,151.753 159.300 M291.200 160.925 C 291.200 161.513,292.498 163.200,292.946 163.194 C 293.257 163.190,293.267 163.095,292.977 162.894 C 292.744 162.732,292.249 162.155,291.877 161.611 C 291.505 161.067,291.200 160.758,291.200 160.925 M64.901 162.700 C 63.671 164.281,62.782 165.710,63.470 165.000 C 64.270 164.175,66.459 161.200,66.267 161.200 C 66.157 161.200,65.542 161.875,64.901 162.700 M332.850 162.994 C 331.447 163.954,330.097 164.959,329.850 165.225 C 329.602 165.491,330.795 164.779,332.500 163.642 C 334.205 162.506,335.600 161.491,335.600 161.388 C 335.600 161.109,335.604 161.107,332.850 162.994 M273.454 164.000 C 275.262 166.674,275.985 167.477,274.957 165.670 C 274.541 164.938,273.697 163.768,273.083 163.070 C 272.276 162.152,272.379 162.410,273.454 164.000 M345.446 163.796 C 344.372 164.539,343.292 165.365,343.046 165.630 C 342.801 165.895,343.725 165.361,345.100 164.441 C 346.475 163.522,347.600 162.687,347.600 162.585 C 347.600 162.311,347.563 162.332,345.446 163.796 M167.846 165.000 C 167.491 165.550,166.909 166.450,166.554 167.000 C 166.199 167.550,166.004 168.000,166.121 168.000 C 166.239 168.000,166.754 167.337,167.267 166.526 C 167.780 165.716,168.321 164.872,168.470 164.652 C 168.640 164.398,169.006 164.462,169.470 164.826 C 170.138 165.351,170.154 165.341,169.651 164.700 C 168.917 163.765,168.611 163.815,167.846 165.000 M43.265 166.617 C 42.595 168.088,42.723 168.402,43.447 167.065 C 43.786 166.440,43.988 165.854,43.896 165.763 C 43.805 165.671,43.521 166.056,43.265 166.617 M327.836 166.831 C 327.158 167.636,326.816 168.500,326.846 169.331 C 326.891 170.579,326.897 170.575,327.184 169.091 C 327.345 168.262,327.896 167.137,328.408 166.591 C 328.920 166.046,329.234 165.600,329.105 165.600 C 328.976 165.600,328.405 166.154,327.836 166.831 M172.000 169.200 C 172.449 170.080,172.906 170.800,173.016 170.800 C 173.126 170.800,172.849 170.080,172.400 169.200 C 171.951 168.320,171.494 167.600,171.384 167.600 C 171.274 167.600,171.551 168.320,172.000 169.200 M320.537 170.600 C 320.539 172.360,320.609 173.030,320.693 172.089 C 320.778 171.149,320.777 169.709,320.691 168.889 C 320.605 168.070,320.536 168.840,320.537 170.600 M336.850 169.794 C 335.447 170.754,334.097 171.759,333.850 172.025 C 333.602 172.291,334.795 171.579,336.500 170.442 C 338.205 169.306,339.600 168.291,339.600 168.188 C 339.600 167.909,339.604 167.907,336.850 169.794 M41.853 169.735 C 41.125 171.478,40.644 173.053,40.917 172.800 C 41.249 172.493,42.814 168.400,42.600 168.400 C 42.496 168.400,42.160 169.001,41.853 169.735 M145.691 171.700 C 145.010 173.584,145.104 174.094,145.826 172.430 C 146.153 171.677,146.366 170.899,146.301 170.702 C 146.235 170.505,145.960 170.954,145.691 171.700 M163.781 172.037 C 163.429 172.718,163.212 173.345,163.299 173.432 C 163.386 173.519,163.756 172.962,164.122 172.195 C 164.944 170.470,164.659 170.338,163.781 172.037 M58.981 172.437 C 58.629 173.118,58.412 173.745,58.499 173.832 C 58.586 173.919,58.956 173.362,59.322 172.595 C 60.144 170.870,59.859 170.738,58.981 172.437 M174.207 173.479 C 174.807 174.914,175.200 175.562,175.200 175.116 C 175.200 174.684,173.985 172.000,173.789 172.000 C 173.679 172.000,173.867 172.666,174.207 173.479 M280.053 176.500 C 280.516 177.655,281.066 179.202,281.276 179.938 C 281.486 180.673,281.741 181.192,281.843 181.091 C 282.150 180.783,279.820 174.400,279.400 174.400 C 279.297 174.400,279.590 175.345,280.053 176.500 M161.396 177.472 C 161.058 178.281,160.833 179.100,160.897 179.291 C 160.961 179.482,161.316 178.820,161.687 177.819 C 162.493 175.645,162.270 175.379,161.396 177.472 M39.049 177.815 C 38.912 178.173,38.815 178.766,38.834 179.133 C 38.853 179.500,39.027 179.269,39.221 178.620 C 39.598 177.358,39.465 176.733,39.049 177.815 M320.177 189.400 C 320.177 195.780,320.232 198.334,320.299 195.076 C 320.367 191.817,320.366 186.597,320.299 183.476 C 320.231 180.354,320.176 183.020,320.177 189.400 M160.249 180.615 C 160.112 180.973,160.015 181.566,160.034 181.933 C 160.053 182.300,160.227 182.069,160.421 181.420 C 160.798 180.158,160.665 179.533,160.249 180.615 M142.093 184.800 C 142.093 185.570,142.175 185.885,142.276 185.500 C 142.376 185.115,142.376 184.485,142.276 184.100 C 142.175 183.715,142.093 184.030,142.093 184.800 M195.293 184.800 C 195.293 185.570,195.375 185.885,195.476 185.500 C 195.576 185.115,195.576 184.485,195.476 184.100 C 195.375 183.715,195.293 184.030,195.293 184.800 M37.293 186.000 C 37.293 186.770,37.375 187.085,37.476 186.700 C 37.576 186.315,37.576 185.685,37.476 185.300 C 37.375 184.915,37.293 185.230,37.293 186.000 M178.893 188.000 C 178.893 188.770,178.975 189.085,179.076 188.700 C 179.176 188.315,179.176 187.685,179.076 187.300 C 178.975 186.915,178.893 187.230,178.893 188.000 M53.693 189.200 C 53.693 189.970,53.775 190.285,53.876 189.900 C 53.976 189.515,53.976 188.885,53.876 188.500 C 53.775 188.115,53.693 188.430,53.693 189.200 M283.693 189.200 C 283.693 189.970,283.775 190.285,283.876 189.900 C 283.976 189.515,283.976 188.885,283.876 188.500 C 283.775 188.115,283.693 188.430,283.693 189.200 M141.376 199.400 C 141.376 205.560,141.432 208.024,141.499 204.876 C 141.567 201.727,141.567 196.687,141.499 193.676 C 141.431 190.664,141.376 193.240,141.376 199.400 M196.114 190.200 C 196.117 191.300,196.195 191.703,196.287 191.095 C 196.379 190.486,196.377 189.586,196.282 189.095 C 196.187 188.603,196.111 189.100,196.114 190.200 M36.573 199.400 C 36.573 204.680,36.630 206.785,36.699 204.077 C 36.768 201.369,36.768 197.049,36.699 194.477 C 36.629 191.905,36.572 194.120,36.573 199.400 M157.724 193.800 C 157.726 195.120,157.801 195.612,157.890 194.893 C 157.979 194.174,157.977 193.094,157.886 192.493 C 157.795 191.892,157.722 192.480,157.724 193.800 M179.724 193.800 C 179.726 195.120,179.801 195.612,179.890 194.893 C 179.979 194.174,179.977 193.094,179.886 192.493 C 179.795 191.892,179.722 192.480,179.724 193.800 M52.960 199.000 C 52.961 202.300,53.022 203.597,53.098 201.882 C 53.173 200.167,53.172 197.467,53.097 195.882 C 53.021 194.297,52.959 195.700,52.960 199.000 M196.514 195.000 C 196.517 196.100,196.595 196.503,196.687 195.895 C 196.779 195.286,196.777 194.386,196.682 193.895 C 196.587 193.403,196.511 193.900,196.514 195.000 M284.531 195.800 C 284.533 197.340,284.605 197.921,284.692 197.091 C 284.779 196.261,284.777 195.001,284.689 194.291 C 284.600 193.581,284.529 194.260,284.531 195.800 M157.748 203.200 C 157.748 205.510,157.814 206.455,157.895 205.300 C 157.976 204.145,157.976 202.255,157.895 201.100 C 157.814 199.945,157.748 200.890,157.748 203.200 M196.909 200.800 C 196.909 201.790,196.987 202.195,197.082 201.700 C 197.178 201.205,197.178 200.395,197.082 199.900 C 196.987 199.405,196.909 199.810,196.909 200.800 M339.128 199.900 C 344.698 199.963,353.698 199.962,359.128 199.900 C 364.558 199.837,360.000 199.785,349.000 199.786 C 338.000 199.786,333.558 199.837,339.128 199.900 M369.900 200.791 C 370.395 201.253,370.800 201.834,370.800 202.082 C 370.800 202.330,370.905 202.429,371.032 202.301 C 371.397 201.936,370.499 200.523,369.711 200.222 C 369.170 200.016,369.215 200.151,369.900 200.791 M327.049 201.415 C 326.912 201.773,326.815 202.366,326.834 202.733 C 326.853 203.100,327.027 202.869,327.221 202.220 C 327.598 200.958,327.465 200.333,327.049 201.415 M180.114 203.400 C 180.117 204.500,180.195 204.903,180.287 204.295 C 180.379 203.686,180.377 202.786,180.282 202.295 C 180.187 201.803,180.111 202.300,180.114 203.400 M319.740 206.400 C 319.740 208.270,319.809 209.035,319.893 208.100 C 319.977 207.165,319.977 205.635,319.893 204.700 C 319.809 203.765,319.740 204.530,319.740 206.400 M284.524 206.200 C 284.526 207.520,284.601 208.012,284.690 207.293 C 284.779 206.574,284.777 205.494,284.686 204.893 C 284.595 204.292,284.522 204.880,284.524 206.200 M196.509 207.200 C 196.509 208.190,196.587 208.595,196.682 208.100 C 196.778 207.605,196.778 206.795,196.682 206.300 C 196.587 205.805,196.509 206.210,196.509 207.200 M179.714 208.200 C 179.717 209.300,179.795 209.703,179.887 209.095 C 179.979 208.486,179.977 207.586,179.882 207.095 C 179.787 206.603,179.711 207.100,179.714 208.200 M339.128 207.500 C 344.698 207.563,353.698 207.562,359.128 207.500 C 364.558 207.437,360.000 207.385,349.000 207.386 C 338.000 207.386,333.558 207.437,339.128 207.500 M53.693 210.000 C 53.693 210.770,53.775 211.085,53.876 210.700 C 53.976 210.315,53.976 209.685,53.876 209.300 C 53.775 208.915,53.693 209.230,53.693 210.000 M196.114 211.000 C 196.117 212.100,196.195 212.503,196.287 211.895 C 196.379 211.286,196.377 210.386,196.282 209.895 C 196.187 209.403,196.111 209.900,196.114 211.000 M158.493 211.200 C 158.493 211.970,158.575 212.285,158.676 211.900 C 158.776 211.515,158.776 210.885,158.676 210.500 C 158.575 210.115,158.493 210.430,158.493 211.200 M37.301 213.000 C 37.305 213.880,37.387 214.193,37.483 213.695 C 37.579 213.198,37.575 212.478,37.475 212.095 C 37.375 211.713,37.296 212.120,37.301 213.000 M178.849 212.600 C 178.816 213.040,178.696 213.850,178.583 214.400 L 178.377 215.400 178.806 214.419 C 179.042 213.879,179.161 213.069,179.072 212.619 C 178.913 211.821,178.907 211.821,178.849 212.600 M142.101 214.200 C 142.105 215.080,142.187 215.393,142.283 214.895 C 142.379 214.398,142.375 213.678,142.275 213.295 C 142.175 212.913,142.096 213.320,142.101 214.200 M319.376 224.800 C 319.376 231.070,319.432 233.635,319.499 230.500 C 319.567 227.365,319.567 222.235,319.499 219.100 C 319.432 215.965,319.376 218.530,319.376 224.800 M178.046 216.067 C 178.021 216.434,177.896 217.064,177.770 217.467 C 177.552 218.162,177.563 218.163,177.997 217.487 C 178.248 217.096,178.373 216.466,178.273 216.087 C 178.111 215.468,178.088 215.466,178.046 216.067 M194.649 218.215 C 194.512 218.573,194.418 219.256,194.441 219.733 C 194.467 220.281,194.603 220.086,194.810 219.203 C 195.160 217.716,195.065 217.133,194.649 218.215 M282.046 218.067 C 282.021 218.434,281.896 219.064,281.770 219.467 C 281.552 220.162,281.563 220.163,281.997 219.487 C 282.248 219.096,282.373 218.466,282.273 218.087 C 282.111 217.468,282.088 217.466,282.046 218.067 M280.713 222.181 C 280.342 223.181,280.117 224.000,280.214 224.000 C 280.493 224.000,281.631 221.094,281.503 220.709 C 281.439 220.518,281.084 221.180,280.713 222.181 M175.590 223.400 C 175.376 223.950,175.009 224.895,174.775 225.500 C 174.541 226.105,174.514 226.420,174.715 226.200 C 175.186 225.683,176.458 222.400,176.187 222.400 C 176.073 222.400,175.805 222.850,175.590 223.400 M57.830 224.800 C 58.209 225.790,58.687 226.780,58.891 227.000 C 59.095 227.220,58.950 226.590,58.570 225.600 C 58.191 224.610,57.713 223.620,57.509 223.400 C 57.305 223.180,57.450 223.810,57.830 224.800 M278.278 227.805 C 277.912 228.572,277.695 229.200,277.796 229.200 C 278.070 229.200,279.284 226.751,279.101 226.568 C 279.014 226.481,278.644 227.038,278.278 227.805 M40.800 226.929 C 40.800 227.432,42.900 232.433,43.049 232.285 C 43.131 232.202,42.731 230.979,42.159 229.567 C 41.147 227.066,40.800 226.393,40.800 226.929 M191.900 227.484 C 191.789 227.878,191.303 229.190,190.821 230.400 C 190.338 231.610,190.108 232.420,190.309 232.200 C 190.858 231.600,192.535 227.202,192.303 226.970 C 192.192 226.859,192.011 227.090,191.900 227.484 M61.125 231.400 C 61.572 232.280,62.233 233.360,62.594 233.800 C 62.955 234.240,62.759 233.700,62.159 232.600 C 60.816 230.138,60.007 229.199,61.125 231.400 M274.255 234.800 C 273.231 236.340,272.478 237.600,272.582 237.600 C 272.685 237.600,273.466 236.565,274.315 235.300 C 276.198 232.499,276.495 232.000,276.282 232.000 C 276.192 232.000,275.280 233.260,274.255 234.800 M166.406 232.509 C 166.394 233.103,168.511 236.000,168.957 236.000 C 169.205 236.000,169.658 235.595,169.965 235.100 C 170.271 234.605,170.785 233.795,171.107 233.300 C 171.429 232.805,171.605 232.400,171.499 232.400 C 171.393 232.400,170.830 233.120,170.247 234.000 C 168.934 235.985,168.850 235.982,167.506 233.897 C 166.905 232.964,166.410 232.339,166.406 232.509 M188.875 234.619 C 187.670 237.100,187.805 237.447,189.046 235.061 C 189.601 233.994,189.987 233.053,189.903 232.970 C 189.819 232.886,189.357 233.628,188.875 234.619 M64.791 237.188 C 65.257 237.841,65.842 238.502,66.091 238.656 C 66.341 238.811,66.041 238.276,65.425 237.468 C 64.088 235.715,63.584 235.492,64.791 237.188 M332.000 237.564 C 332.990 237.705,334.070 237.964,334.400 238.140 C 334.730 238.316,334.651 238.176,334.224 237.830 C 333.768 237.460,332.777 237.222,331.824 237.253 L 330.200 237.307 332.000 237.564 M294.600 238.607 C 295.040 238.966,295.760 239.435,296.200 239.651 L 297.000 240.044 296.200 239.393 C 295.760 239.034,295.040 238.565,294.600 238.349 L 293.800 237.956 294.600 238.607 M335.200 238.501 C 335.200 238.676,336.005 239.241,339.300 241.378 C 339.905 241.771,340.400 242.005,340.400 241.899 C 340.400 241.724,339.595 241.159,336.300 239.022 C 335.695 238.629,335.200 238.395,335.200 238.501 M318.940 242.000 C 318.940 243.870,319.009 244.635,319.093 243.700 C 319.177 242.765,319.177 241.235,319.093 240.300 C 319.009 239.365,318.940 240.130,318.940 242.000 M47.230 240.600 C 47.724 241.480,48.300 242.380,48.510 242.600 C 49.109 243.228,47.739 240.694,46.996 239.800 C 46.630 239.360,46.735 239.720,47.230 240.600 M151.549 240.200 C 151.765 240.640,152.234 241.360,152.593 241.800 L 153.244 242.600 152.851 241.800 C 152.635 241.360,152.166 240.640,151.807 240.200 L 151.156 239.400 151.549 240.200 M290.553 240.100 C 289.176 242.436,289.086 242.635,289.787 241.800 C 290.600 240.832,291.300 239.600,291.038 239.600 C 290.933 239.600,290.715 239.825,290.553 240.100 M185.753 240.500 C 184.376 242.836,184.286 243.035,184.987 242.200 C 185.800 241.232,186.500 240.000,186.238 240.000 C 186.133 240.000,185.915 240.225,185.753 240.500 M266.628 244.308 C 264.664 246.449,264.003 247.300,265.160 246.200 C 267.116 244.341,270.648 240.389,270.337 240.408 C 270.262 240.413,268.593 242.168,266.628 244.308 M69.583 242.900 C 70.564 243.945,71.419 244.800,71.483 244.800 C 71.784 244.800,71.466 244.441,69.700 242.783 L 67.800 241.000 69.583 242.900 M299.974 241.924 C 300.509 242.359,301.499 243.019,302.174 243.391 L 303.400 244.067 302.426 243.276 C 301.891 242.841,300.901 242.181,300.226 241.809 L 299.000 241.133 299.974 241.924 M49.477 244.431 C 49.875 245.108,50.456 245.873,50.768 246.131 C 51.080 246.389,50.832 245.835,50.215 244.900 C 48.920 242.937,48.409 242.612,49.477 244.431 M305.000 245.007 C 305.440 245.366,306.160 245.835,306.600 246.051 L 307.400 246.444 306.600 245.793 C 306.160 245.434,305.440 244.965,305.000 244.749 L 304.200 244.356 305.000 245.007 M182.344 245.900 C 181.193 247.289,180.706 248.000,180.904 248.000 C 181.014 248.000,181.586 247.370,182.173 246.600 C 183.263 245.171,183.395 244.632,182.344 245.900 M347.174 246.324 C 347.709 246.759,348.699 247.419,349.374 247.791 L 350.600 248.467 349.626 247.676 C 349.091 247.241,348.101 246.581,347.426 246.209 L 346.200 245.533 347.174 246.324 M155.999 247.100 C 156.522 247.815,157.013 248.400,157.089 248.400 C 157.393 248.400,156.401 246.900,155.745 246.367 C 155.313 246.016,155.410 246.296,155.999 247.100 M285.600 247.600 C 284.903 248.480,284.423 249.200,284.533 249.200 C 284.643 249.200,285.303 248.480,286.000 247.600 C 286.697 246.720,287.177 246.000,287.067 246.000 C 286.957 246.000,286.297 246.720,285.600 247.600 M53.073 249.272 C 54.133 250.632,55.900 252.667,57.000 253.795 C 58.100 254.922,58.352 255.115,57.560 254.222 C 56.768 253.330,55.083 251.295,53.815 249.700 C 52.547 248.105,51.428 246.800,51.328 246.800 C 51.229 246.800,52.014 247.913,53.073 249.272 M74.400 247.750 C 74.950 248.371,75.940 249.250,76.600 249.704 C 78.026 250.685,77.643 250.264,75.200 248.168 C 74.004 247.141,73.736 247.001,74.400 247.750 M334.374 247.524 C 334.909 247.959,335.899 248.619,336.574 248.991 L 337.800 249.667 336.826 248.876 C 336.291 248.441,335.301 247.781,334.626 247.409 L 333.400 246.733 334.374 247.524 M310.374 248.324 C 310.909 248.759,311.899 249.419,312.574 249.791 L 313.800 250.467 312.826 249.676 C 312.291 249.241,311.301 248.581,310.626 248.209 L 309.400 247.533 310.374 248.324 M180.491 248.873 C 180.586 249.158,181.549 249.990,182.632 250.723 C 183.714 251.455,184.068 251.637,183.419 251.127 C 182.769 250.617,181.806 249.785,181.278 249.277 C 180.750 248.770,180.396 248.588,180.491 248.873 M318.514 251.000 C 318.517 252.100,318.595 252.503,318.687 251.895 C 318.779 251.286,318.777 250.386,318.682 249.895 C 318.587 249.403,318.511 249.900,318.514 251.000 M259.000 250.853 C 256.634 252.624,256.322 253.106,258.480 251.654 C 259.513 250.959,260.469 250.212,260.603 249.995 C 260.955 249.426,260.783 249.518,259.000 250.853 M78.179 250.766 C 78.480 251.252,82.000 253.732,82.000 253.457 C 82.000 253.357,81.081 252.615,79.958 251.808 C 78.835 251.001,78.035 250.532,78.179 250.766 M355.200 251.301 C 355.200 251.476,356.005 252.041,359.300 254.178 C 359.905 254.571,360.400 254.805,360.400 254.699 C 360.400 254.524,359.595 253.959,356.300 251.822 C 355.695 251.429,355.200 251.195,355.200 251.301 M150.806 253.423 C 149.379 254.400,148.353 255.200,148.527 255.200 C 148.913 255.200,153.600 252.045,153.600 251.785 C 153.600 251.509,153.603 251.508,150.806 253.423 M341.200 251.701 C 341.200 251.876,342.005 252.441,345.300 254.578 C 345.905 254.971,346.400 255.205,346.400 255.099 C 346.400 254.924,345.595 254.359,342.300 252.222 C 341.695 251.829,341.200 251.595,341.200 251.701 M83.200 254.364 C 83.750 254.814,84.380 255.183,84.600 255.185 C 85.028 255.188,84.305 254.634,83.000 253.960 C 82.469 253.685,82.536 253.821,83.200 254.364 M276.200 258.281 C 273.025 261.343,272.691 261.737,275.000 259.698 C 278.126 256.937,281.135 253.980,280.778 254.020 C 280.680 254.031,278.620 255.948,276.200 258.281 M85.200 255.399 C 85.200 255.665,92.449 259.285,92.626 259.107 C 92.704 259.029,91.066 258.119,88.984 257.085 C 86.903 256.051,85.200 255.292,85.200 255.399 M348.800 256.501 C 348.800 256.676,349.605 257.241,352.900 259.378 C 353.505 259.771,354.000 260.005,354.000 259.899 C 354.000 259.724,353.195 259.159,349.900 257.022 C 349.295 256.629,348.800 256.395,348.800 256.501 M59.643 256.900 C 59.739 256.955,60.894 257.990,62.209 259.200 L 64.600 261.400 62.414 259.100 C 61.211 257.835,60.056 256.800,59.847 256.800 C 59.638 256.800,59.546 256.845,59.643 256.900 M365.200 257.724 C 365.200 257.817,365.965 258.398,366.900 259.015 C 367.835 259.632,368.389 259.880,368.131 259.568 C 367.634 258.967,365.200 257.436,365.200 257.724 M139.600 259.200 C 138.610 259.615,138.003 259.965,138.251 259.978 C 138.818 260.006,141.600 258.857,141.600 258.595 C 141.600 258.348,141.712 258.314,139.600 259.200 M133.600 261.200 C 132.776 261.464,132.741 261.526,133.400 261.554 C 133.840 261.573,134.470 261.413,134.800 261.200 C 135.501 260.747,135.014 260.747,133.600 261.200 M202.800 261.182 C 203.130 261.405,203.745 261.591,204.167 261.594 C 205.190 261.602,204.871 261.373,203.400 261.044 C 202.524 260.848,202.362 260.885,202.800 261.182 M167.170 262.300 L 166.200 263.400 167.400 262.400 C 168.060 261.850,168.675 261.355,168.767 261.300 C 168.858 261.245,168.755 261.200,168.536 261.200 C 168.318 261.200,167.703 261.695,167.170 262.300 M170.400 262.397 C 172.007 263.845,174.000 265.334,174.000 265.086 C 174.000 264.994,172.875 264.067,171.500 263.027 C 170.125 261.986,169.630 261.703,170.400 262.397 M356.400 261.301 C 356.400 261.476,357.205 262.041,360.500 264.178 C 361.105 264.571,361.600 264.805,361.600 264.699 C 361.600 264.524,360.795 263.959,357.500 261.822 C 356.895 261.429,356.400 261.195,356.400 261.301 M65.324 261.877 C 65.660 262.421,68.800 264.955,68.800 264.682 C 68.800 264.580,67.953 263.803,66.919 262.955 C 65.884 262.107,65.166 261.622,65.324 261.877 M233.700 262.276 C 234.085 262.376,234.715 262.376,235.100 262.276 C 235.485 262.175,235.170 262.093,234.400 262.093 C 233.630 262.093,233.315 262.175,233.700 262.276 M107.100 263.082 C 107.595 263.178,108.405 263.178,108.900 263.082 C 109.395 262.987,108.990 262.909,108.000 262.909 C 107.010 262.909,106.605 262.987,107.100 263.082 M124.300 263.082 C 124.795 263.178,125.605 263.178,126.100 263.082 C 126.595 262.987,126.190 262.909,125.200 262.909 C 124.210 262.909,123.805 262.987,124.300 263.082 M211.500 263.082 C 211.995 263.178,212.805 263.178,213.300 263.082 C 213.795 262.987,213.390 262.909,212.400 262.909 C 211.410 262.909,211.005 262.987,211.500 263.082 M228.700 263.082 C 229.195 263.178,230.005 263.178,230.500 263.082 C 230.995 262.987,230.590 262.909,229.600 262.909 C 228.610 262.909,228.205 262.987,228.700 263.082 M114.300 263.895 C 115.455 263.976,117.345 263.976,118.500 263.895 C 119.655 263.814,118.710 263.748,116.400 263.748 C 114.090 263.748,113.145 263.814,114.300 263.895 M219.100 263.895 C 220.255 263.976,222.145 263.976,223.300 263.895 C 224.455 263.814,223.510 263.748,221.200 263.748 C 218.890 263.748,217.945 263.814,219.100 263.895 M268.200 265.035 L 267.000 266.066 268.300 265.206 C 269.015 264.733,269.600 264.268,269.600 264.173 C 269.600 263.873,269.431 263.978,268.200 265.035 M70.094 265.690 C 71.282 266.700,73.600 268.147,73.600 267.879 C 73.600 267.788,72.565 267.049,71.300 266.237 C 70.035 265.425,69.492 265.179,70.094 265.690 M264.100 267.646 C 262.737 268.519,262.295 269.106,263.500 268.443 C 264.418 267.939,265.856 266.827,265.600 266.819 C 265.490 266.816,264.815 267.188,264.100 267.646 M178.600 268.207 C 179.040 268.566,179.760 269.035,180.200 269.251 L 181.000 269.644 180.200 268.993 C 179.760 268.634,179.040 268.165,178.600 267.949 L 177.800 267.556 178.600 268.207 M156.900 269.246 C 155.537 270.119,155.095 270.706,156.300 270.043 C 157.218 269.539,158.656 268.427,158.400 268.419 C 158.290 268.416,157.615 268.788,156.900 269.246 M75.600 269.220 C 76.987 270.161,77.778 270.435,76.800 269.636 C 76.250 269.186,75.620 268.817,75.400 268.815 C 75.180 268.813,75.270 268.996,75.600 269.220 M259.600 270.436 C 258.936 270.979,258.869 271.115,259.400 270.840 C 260.705 270.166,261.428 269.612,261.000 269.615 C 260.780 269.617,260.150 269.986,259.600 270.436 M78.800 270.984 C 78.800 271.094,79.520 271.551,80.400 272.000 C 81.280 272.449,82.000 272.726,82.000 272.616 C 82.000 272.506,81.280 272.049,80.400 271.600 C 79.520 271.151,78.800 270.874,78.800 270.984 M253.600 273.400 C 253.050 273.714,252.780 273.972,253.000 273.972 C 253.220 273.972,253.850 273.714,254.400 273.400 C 254.950 273.086,255.220 272.828,255.000 272.828 C 254.780 272.828,254.150 273.086,253.600 273.400 M147.000 274.214 C 146.340 274.517,146.070 274.766,146.400 274.768 C 146.730 274.770,147.450 274.514,148.000 274.200 C 149.265 273.477,148.589 273.487,147.000 274.214 M87.146 275.016 C 87.886 275.337,88.696 275.593,88.946 275.584 C 89.196 275.576,88.794 275.306,88.054 274.984 C 87.314 274.663,86.504 274.407,86.254 274.416 C 86.004 274.424,86.406 274.694,87.146 275.016 M141.656 276.059 C 140.917 276.272,140.387 276.520,140.479 276.612 C 140.681 276.814,143.600 276.037,143.600 275.781 C 143.600 275.546,143.282 275.591,141.656 276.059 M138.000 277.218 C 137.562 277.515,137.724 277.552,138.600 277.356 C 140.071 277.027,140.390 276.798,139.367 276.806 C 138.945 276.809,138.330 276.995,138.000 277.218 M197.633 276.944 C 197.725 277.023,198.340 277.208,199.000 277.356 C 199.876 277.552,200.038 277.515,199.600 277.218 C 199.060 276.853,197.232 276.598,197.633 276.944 M103.900 279.482 C 104.395 279.578,105.205 279.578,105.700 279.482 C 106.195 279.387,105.790 279.309,104.800 279.309 C 103.810 279.309,103.405 279.387,103.900 279.482 M127.505 279.483 C 128.002 279.579,128.722 279.575,129.105 279.475 C 129.487 279.375,129.080 279.296,128.200 279.301 C 127.320 279.305,127.007 279.387,127.505 279.483 M208.705 279.483 C 209.202 279.579,209.922 279.575,210.305 279.475 C 210.687 279.375,210.280 279.296,209.400 279.301 C 208.520 279.305,208.207 279.387,208.705 279.483 M231.900 279.482 C 232.395 279.578,233.205 279.578,233.700 279.482 C 234.195 279.387,233.790 279.309,232.800 279.309 C 231.810 279.309,231.405 279.387,231.900 279.482 M112.880 280.298 C 114.794 280.371,118.034 280.371,120.080 280.298 C 122.126 280.226,120.560 280.166,116.600 280.165 C 112.640 280.165,110.966 280.224,112.880 280.298 M217.280 280.298 C 219.194 280.371,222.434 280.371,224.480 280.298 C 226.526 280.226,224.960 280.166,221.000 280.165 C 217.040 280.165,215.366 280.224,217.280 280.298 " stroke="none" fill="#9bacf4" fill-rule="evenodd"></path></g></svg>